{"glyphs":{"0":{"ha":756,"x_min":42,"x_max":772,"o":"m 524 935 q 716 888 660 933 q 772 740 772 843 q 731 472 772 647 q 640 177 683 274 q 519 37 596 81 q 300 -7 443 -7 q 99 38 157 -7 q 42 183 42 82 q 54 303 42 233 q 90 472 67 372 q 181 758 135 663 q 304 894 226 853 q 524 935 382 935 m 507 863 q 353 833 406 863 q 266 725 300 804 q 192 472 232 646 q 151 286 164 350 q 139 181 139 222 q 156 109 139 133 q 212 75 174 85 q 318 65 250 65 q 468 96 417 65 q 554 209 519 126 q 632 472 589 292 q 668 642 657 579 q 679 746 679 706 q 663 818 679 793 q 609 853 646 843 q 507 863 572 863 z "},"1":{"ha":756,"x_min":275,"x_max":608,"o":"m 296 0 l 493 838 l 275 757 l 296 842 l 532 928 l 583 928 q 602 919 596 928 q 606 894 608 910 l 393 0 l 296 0 z "},"2":{"ha":756,"x_min":10,"x_max":743,"o":"m 557 0 l 10 0 q 32 82 18 38 q 110 236 58 172 q 219 340 161 300 q 368 429 278 379 q 498 506 450 474 q 585 587 546 539 q 639 701 624 635 q 646 760 646 729 q 610 835 646 813 q 494 858 575 858 q 372 843 426 858 q 261 803 318 828 l 268 883 q 377 920 324 906 q 507 935 431 935 q 685 890 626 935 q 743 765 743 846 q 733 696 743 740 q 667 551 714 611 q 563 453 619 492 q 418 365 507 414 q 283 285 335 319 q 188 198 231 250 q 128 74 146 146 l 575 74 l 557 0 z "},"3":{"ha":756,"x_min":22,"x_max":729,"o":"m 286 -7 q 160 3 211 -7 q 83 22 108 13 q 22 50 57 32 l 56 121 q 150 81 97 96 q 289 67 203 67 q 414 83 369 67 q 483 137 458 99 q 525 249 507 175 q 540 351 540 314 q 508 423 540 404 q 392 442 475 442 l 239 442 l 257 514 l 429 514 q 529 535 493 514 q 583 592 565 556 q 615 688 601 628 q 628 775 628 742 q 596 840 628 822 q 481 857 564 857 q 365 847 414 857 q 286 828 317 838 q 247 815 256 818 l 256 893 q 299 907 264 896 q 387 926 335 918 q 499 935 439 935 q 677 897 625 935 q 729 788 729 858 q 718 707 729 751 q 648 542 690 593 q 529 476 606 492 q 612 437 586 467 q 638 353 638 407 q 619 231 638 310 q 567 93 599 143 q 469 18 535 43 q 286 -7 404 -7 z "},"4":{"ha":756,"x_min":33,"x_max":722,"o":"m 469 219 l 33 219 l 44 267 q 64 301 50 286 l 590 928 l 699 928 q 716 918 710 928 q 719 894 722 908 l 576 292 l 676 292 l 658 219 l 558 219 l 507 0 l 417 0 l 469 219 m 486 292 l 618 850 l 144 292 l 486 292 z "},"5":{"ha":756,"x_min":21,"x_max":757,"o":"m 457 543 q 608 504 564 543 q 651 392 651 465 q 635 275 651 349 q 572 103 608 163 q 472 19 536 44 q 296 -7 408 -7 q 21 44 143 -7 l 54 117 q 169 80 110 93 q 306 67 229 67 q 423 84 381 67 q 490 145 465 101 q 535 274 515 189 q 551 382 551 353 q 517 453 551 435 q 394 472 483 472 q 147 464 333 472 l 268 897 q 281 919 271 911 q 303 928 292 928 l 757 928 l 740 857 l 344 857 l 254 538 q 319 540 275 538 q 457 543 406 543 z "},"6":{"ha":756,"x_min":40,"x_max":774,"o":"m 292 -7 q 95 33 150 -7 q 40 149 40 74 q 47 209 40 175 q 60 276 53 243 l 146 638 q 205 806 171 744 q 310 901 239 868 q 511 935 382 935 q 672 922 615 935 q 774 893 729 910 l 743 819 q 643 850 693 839 q 504 861 593 861 q 369 840 419 861 q 292 774 319 818 q 246 650 265 729 l 154 263 q 143 211 153 253 q 133 143 133 169 q 171 80 133 97 q 310 63 208 63 q 455 82 406 63 q 526 140 504 101 q 567 258 547 179 q 583 368 583 335 q 544 444 583 422 q 399 467 504 467 q 242 456 324 467 q 312 517 265 497 q 442 538 358 538 q 625 500 572 538 q 678 383 678 463 q 660 258 678 335 q 609 110 639 164 q 506 25 579 57 q 292 -7 432 -7 z "},"7":{"ha":756,"x_min":81,"x_max":783,"o":"m 658 853 l 229 853 l 246 928 l 783 928 l 768 857 l 188 0 l 81 0 l 658 853 z "},"8":{"ha":756,"x_min":31,"x_max":767,"o":"m 292 -7 q 88 35 146 -6 q 31 151 31 76 q 37 208 31 175 q 50 272 43 240 q 113 415 72 367 q 247 479 154 463 q 176 519 197 493 q 156 590 156 546 q 172 699 156 625 q 235 845 193 794 q 342 915 276 896 q 515 935 408 935 q 710 895 653 935 q 767 782 767 856 q 754 699 767 751 q 721 588 738 628 q 670 521 704 549 q 574 479 636 493 q 659 436 633 465 q 685 356 685 407 q 674 272 685 324 q 622 116 651 171 q 517 27 593 61 q 292 -7 440 -7 m 417 515 q 559 531 513 515 q 624 581 606 547 q 660 689 643 615 q 674 775 674 747 q 636 840 674 821 q 497 861 599 860 q 366 843 413 861 q 297 790 319 825 q 260 689 275 754 q 246 596 246 626 q 282 533 246 551 q 417 515 318 515 m 310 64 q 457 86 404 64 q 535 152 510 108 q 579 275 561 196 q 590 350 590 322 q 549 423 590 401 q 400 446 508 444 q 258 427 308 444 q 184 374 208 410 q 144 275 160 339 q 128 167 128 201 q 167 88 128 111 q 310 64 207 64 z "},"9":{"ha":756,"x_min":40,"x_max":775,"o":"m 303 -7 q 146 6 200 -7 q 40 36 92 18 l 71 108 q 172 77 124 88 q 310 67 221 67 q 446 88 396 67 q 523 155 496 110 q 568 279 550 200 l 658 665 q 674 733 668 701 q 681 785 681 765 q 643 848 681 831 q 504 865 606 865 q 359 846 408 865 q 288 787 310 826 q 249 669 267 747 q 231 558 231 588 q 271 483 231 506 q 417 461 311 461 q 572 472 490 461 q 363 390 522 390 q 187 428 238 390 q 136 544 136 467 q 154 671 136 594 q 206 818 176 765 q 309 903 235 871 q 524 935 383 935 q 720 897 665 935 q 775 785 775 858 q 754 651 775 743 l 669 292 q 610 123 644 185 q 503 27 575 61 q 303 -7 432 -7 z "},"\u0000":{"ha":0,"x_min":0,"x_max":0,"o":""},"\r":{"ha":353,"x_min":0,"x_max":0,"o":""}," ":{"ha":353,"x_min":0,"x_max":0,"o":""},"!":{"ha":376,"x_min":56,"x_max":379,"o":"m 344 939 q 370 931 361 939 q 379 908 379 922 q 378 896 379 900 l 182 197 l 119 197 l 257 896 q 276 926 260 913 q 315 939 293 939 l 344 939 m 122 -10 q 74 9 92 -10 q 56 60 56 28 q 73 112 56 93 q 122 131 90 131 q 171 112 153 131 q 189 60 189 93 q 171 8 189 26 q 122 -10 153 -10 z "},"\"":{"ha":579,"x_min":263,"x_max":535,"o":"m 263 671 l 338 986 l 396 986 l 322 671 l 263 671 m 401 671 l 476 986 l 535 986 l 461 671 l 401 671 z "},"#":{"ha":814,"x_min":29,"x_max":839,"o":"m 518 331 l 665 331 l 650 265 l 488 265 l 360 0 l 285 0 l 411 265 l 253 265 l 125 0 l 50 0 l 176 265 l 29 265 l 44 331 l 208 331 l 349 622 l 201 622 l 217 689 l 379 689 l 494 928 l 572 928 l 456 689 l 614 689 l 729 928 l 806 928 l 690 689 l 839 689 l 822 622 l 660 622 l 518 331 m 425 622 l 285 331 l 444 331 l 583 622 l 425 622 z "},"$":{"ha":763,"x_min":17,"x_max":736,"o":"m 271 -8 q 151 4 199 -7 q 17 44 103 15 l 50 119 q 92 102 57 117 q 175 76 128 88 q 268 65 222 65 q 423 110 367 65 q 501 247 479 154 q 511 311 511 292 q 495 371 511 347 q 452 410 479 394 q 374 450 425 426 q 326 471 353 457 q 214 544 249 506 q 179 643 179 583 q 188 711 179 674 q 288 872 210 811 q 497 938 367 933 l 518 1026 l 564 1026 l 542 936 q 736 896 650 931 l 700 825 q 500 864 592 864 q 289 713 325 864 q 283 671 283 692 q 317 594 283 624 q 417 536 350 565 q 533 478 493 501 q 594 422 572 454 q 615 339 615 389 q 604 253 615 306 q 318 -7 551 15 l 297 -100 l 250 -100 l 271 -8 z "},"%":{"ha":1249,"x_min":79,"x_max":1214,"o":"m 250 317 q 117 345 156 317 q 79 442 79 374 q 111 632 79 500 q 170 822 140 760 q 251 911 200 885 q 396 938 301 938 q 522 907 485 938 q 560 807 560 876 q 532 632 560 753 q 474 435 501 499 q 396 344 446 372 q 250 317 346 317 m 1032 938 l 1092 938 l 260 -4 l 199 -4 l 1032 938 m 258 361 q 359 382 324 361 q 417 458 394 403 q 468 632 440 513 q 499 813 499 763 q 473 876 499 860 q 383 892 447 892 q 281 872 317 892 q 224 800 246 853 q 174 632 201 747 q 147 507 154 549 q 139 438 139 465 q 165 376 139 392 q 258 361 190 361 m 903 -4 q 770 25 808 -4 q 732 122 732 54 q 763 311 732 178 q 822 501 792 438 q 903 590 851 564 q 1049 617 954 617 q 1176 586 1139 617 q 1214 485 1214 556 q 1186 311 1214 432 q 1127 115 1156 178 q 1049 24 1099 51 q 903 -4 999 -4 m 913 40 q 1013 61 978 40 q 1070 137 1047 82 q 1121 311 1093 192 q 1145 426 1138 386 q 1153 493 1153 465 q 1127 555 1153 539 q 1038 571 1101 571 q 935 551 971 571 q 877 479 900 532 q 826 311 854 426 q 799 188 807 229 q 792 119 792 147 q 818 56 792 72 q 913 40 844 40 z "},"&":{"ha":921,"x_min":94,"x_max":875,"o":"m 332 -7 q 148 30 201 -7 q 94 143 94 67 q 111 260 94 183 q 187 419 136 365 q 318 481 238 474 q 243 518 265 492 q 221 592 221 544 q 238 704 221 625 q 285 838 257 790 q 383 910 314 885 q 583 936 453 936 q 776 913 693 936 l 742 842 q 571 863 667 863 q 441 849 488 863 q 368 797 394 835 q 324 686 342 760 q 310 601 310 633 q 342 535 310 557 q 454 513 374 513 l 650 513 l 683 654 l 764 654 l 731 513 l 875 513 l 858 446 l 715 446 l 665 231 q 656 158 656 192 q 682 90 656 111 q 764 68 708 68 l 799 68 l 782 0 q 722 -6 751 -6 q 606 39 647 -6 q 497 5 560 17 q 332 -7 433 -7 m 360 65 q 583 93 489 65 q 576 150 576 113 q 588 242 576 197 l 635 446 l 456 446 q 324 428 372 446 q 250 372 275 410 q 208 267 225 333 q 192 156 192 199 q 208 100 192 119 q 259 73 224 81 q 360 65 294 65 z "},"'":{"ha":379,"x_min":232,"x_max":365,"o":"m 232 671 l 307 986 l 365 986 l 290 671 l 232 671 z "},"(":{"ha":400,"x_min":60,"x_max":499,"o":"m 167 -201 q 60 181 60 -31 q 113 483 60 343 q 245 731 165 622 q 438 957 325 840 l 499 957 q 231 588 329 778 q 132 169 132 399 q 229 -201 132 -33 l 167 -201 z "},")":{"ha":403,"x_min":-85,"x_max":349,"o":"m -85 -201 q 178 160 81 -44 q 276 581 276 364 q 258 751 276 675 q 224 866 240 828 q 179 957 207 904 l 240 957 q 272 904 243 953 q 324 762 300 856 q 349 567 349 668 q 246 148 349 346 q -24 -201 143 -50 l -85 -201 z "},"*":{"ha":593,"x_min":161,"x_max":578,"o":"m 353 735 q 349 733 351 733 q 324 756 333 733 l 243 881 l 286 908 l 350 772 q 357 746 357 754 q 353 735 357 738 m 385 735 q 382 747 382 738 q 388 772 382 760 l 451 908 l 496 881 l 415 756 q 385 735 397 729 m 335 704 q 326 694 335 699 q 303 688 318 689 l 161 678 l 161 731 l 303 721 q 326 715 318 719 q 335 704 335 710 m 404 704 q 413 715 404 710 q 436 721 421 719 l 578 731 l 578 678 l 436 688 q 413 694 421 689 q 404 704 404 699 m 353 674 q 357 663 357 672 q 350 636 357 654 l 286 500 l 243 528 l 324 653 q 339 671 331 665 q 353 674 347 676 m 385 674 q 390 675 386 675 q 415 653 403 675 l 496 528 l 451 500 l 388 636 q 385 674 376 665 z "},"+":{"ha":763,"x_min":147,"x_max":678,"o":"m 376 443 l 147 443 l 147 519 l 376 519 l 376 761 l 450 761 l 450 519 l 678 519 l 678 443 l 450 443 l 450 204 l 376 204 l 376 443 z "},",":{"ha":335,"x_min":-68,"x_max":182,"o":"m 3 -179 q -22 -196 -8 -196 l -68 -196 l 86 119 l 182 119 l 3 -179 z "},"-":{"ha":460,"x_min":81,"x_max":417,"o":"m 92 451 q 101 468 93 461 q 118 475 110 475 l 417 476 l 404 426 q 394 408 401 415 q 378 401 386 401 l 81 400 l 92 451 z "},".":{"ha":325,"x_min":31,"x_max":164,"o":"m 97 -14 q 49 5 67 -14 q 31 56 31 24 q 48 108 31 89 q 97 126 65 126 q 146 108 128 126 q 164 56 164 89 q 146 4 164 22 q 97 -14 128 -14 z "},"/":{"ha":443,"x_min":-121,"x_max":560,"o":"m 560 929 l -50 -207 l -121 -207 l 490 929 l 560 929 z "},":":{"ha":328,"x_min":36,"x_max":303,"o":"m 236 544 q 188 563 206 544 q 169 614 169 582 q 187 666 169 647 q 236 685 204 685 q 285 666 267 685 q 303 614 303 647 q 285 563 303 581 q 236 544 267 544 m 103 -11 q 54 8 72 -11 q 36 58 36 26 q 53 110 36 92 q 103 129 71 129 q 151 110 133 129 q 169 58 169 92 q 151 7 169 25 q 103 -11 133 -11 z "},";":{"ha":335,"x_min":-68,"x_max":300,"o":"m 233 544 q 185 563 203 544 q 168 615 168 582 q 185 665 168 647 q 233 683 203 683 q 282 665 264 683 q 300 615 300 647 q 282 563 300 582 q 233 544 264 544 m 86 119 l 182 119 l 3 -179 q -22 -196 -8 -196 l -68 -196 l 86 119 z "},"<":{"ha":763,"x_min":172,"x_max":675,"o":"m 172 450 l 172 519 l 675 718 l 675 639 l 285 485 l 675 328 l 675 249 l 172 450 z "},"=":{"ha":763,"x_min":147,"x_max":676,"o":"m 147 617 l 676 617 l 676 540 l 147 540 l 147 617 m 147 425 l 676 425 l 676 350 l 147 350 l 147 425 z "},">":{"ha":763,"x_min":146,"x_max":649,"o":"m 146 328 l 536 485 l 146 639 l 146 718 l 649 519 l 649 450 l 146 249 l 146 328 z "},"?":{"ha":617,"x_min":139,"x_max":644,"o":"m 200 200 q 243 353 213 293 q 309 444 274 413 q 401 515 344 476 q 497 594 464 558 q 544 692 529 629 q 554 763 554 736 q 524 833 554 808 q 422 858 494 858 q 310 846 356 858 q 213 813 265 833 l 210 893 q 317 923 269 913 q 443 933 364 933 q 599 888 553 933 q 644 771 644 842 q 635 694 644 736 q 595 600 621 639 q 541 536 569 561 q 465 479 513 511 q 378 411 411 442 q 315 329 344 381 q 272 200 286 278 l 200 200 m 206 -12 q 157 6 175 -12 q 139 57 139 25 q 156 109 139 90 q 206 128 174 128 q 253 109 235 128 q 271 57 271 90 q 253 6 271 24 q 206 -12 236 -12 z "},"@":{"ha":1292,"x_min":100,"x_max":1210,"o":"m 596 -201 q 288 -176 392 -201 q 142 -87 183 -150 q 100 101 100 -24 q 115 318 100 163 q 189 721 144 600 q 347 888 233 842 q 715 933 460 933 q 1023 908 919 933 q 1168 817 1126 883 q 1210 618 1210 751 q 1193 382 1210 542 q 1122 155 1176 229 q 960 81 1068 81 l 808 81 q 783 90 792 81 q 775 117 774 100 l 825 586 q 750 601 786 597 q 660 604 714 604 q 546 588 581 604 q 497 528 511 571 q 472 383 483 486 l 467 335 q 460 254 460 282 q 490 169 461 192 q 596 146 518 146 q 764 163 683 146 q 703 100 756 125 q 557 75 650 75 q 412 115 451 75 q 372 246 372 156 q 383 385 372 279 q 417 556 396 499 q 497 642 439 613 q 674 672 554 672 q 921 632 829 672 l 865 138 l 965 138 q 1078 192 1040 138 q 1129 382 1115 246 q 1146 613 1146 542 q 1108 791 1146 735 q 983 864 1071 847 q 710 881 896 881 q 391 850 488 881 q 252 723 294 819 q 186 397 210 626 q 164 111 164 188 q 201 -59 164 -4 q 327 -133 238 -114 q 601 -151 417 -151 q 817 -133 703 -151 q 990 -92 932 -115 l 1000 -142 q 819 -183 938 -164 q 596 -201 700 -201 z "},"A":{"ha":790,"x_min":-60,"x_max":686,"o":"m 460 906 q 474 922 465 915 q 493 928 483 928 l 593 928 l 686 0 l 583 0 l 556 313 l 224 313 l 47 0 l -60 0 l 460 906 m 550 388 l 535 581 l 515 836 l 513 836 q 408 647 467 749 l 369 578 l 263 388 l 550 388 z "},"B":{"ha":767,"x_min":32,"x_max":753,"o":"m 251 928 l 550 928 q 708 897 664 928 q 753 806 753 867 q 736 699 753 768 q 703 585 721 628 q 652 517 685 543 q 564 485 619 492 l 564 483 q 642 444 618 475 q 665 358 665 413 q 650 249 665 314 q 602 105 628 154 q 515 28 576 56 q 335 0 453 0 l 32 0 l 251 928 m 429 517 q 549 535 510 517 q 604 586 589 553 q 636 690 619 619 q 653 786 653 760 q 620 840 653 825 q 497 854 588 854 l 335 854 l 254 517 l 429 517 m 319 74 q 448 91 404 74 q 513 146 492 108 q 551 263 533 183 q 571 372 571 343 q 540 427 571 411 q 425 443 508 443 l 238 443 l 150 74 l 319 74 z "},"C":{"ha":758,"x_min":78,"x_max":808,"o":"m 601 29 q 375 -8 506 -8 q 198 12 263 -8 q 106 74 133 32 q 78 189 78 117 q 90 303 78 238 q 125 468 101 368 q 220 764 172 668 q 352 898 268 860 q 596 936 436 936 q 719 926 671 936 q 808 899 767 915 l 779 825 q 588 863 697 863 q 406 834 467 863 q 307 726 344 806 q 231 472 269 646 q 192 291 203 347 q 181 193 181 235 q 201 115 181 142 q 269 77 222 88 q 403 67 317 67 q 516 76 472 67 q 611 106 560 85 l 601 29 z "},"D":{"ha":886,"x_min":32,"x_max":856,"o":"m 251 928 l 553 928 q 732 908 667 928 q 826 846 797 889 q 856 728 856 803 q 815 471 856 643 q 726 173 767 264 q 598 41 685 82 q 333 0 511 0 l 32 0 l 251 928 m 153 78 l 336 78 q 538 107 472 76 q 637 215 603 138 q 713 472 671 292 q 753 717 753 649 q 731 801 753 772 q 659 840 708 829 q 519 850 610 850 l 336 849 l 153 78 z "},"E":{"ha":688,"x_min":39,"x_max":749,"o":"m 547 76 l 529 0 l 39 0 l 260 928 l 749 928 l 731 853 l 343 853 l 265 525 l 611 525 l 592 447 l 247 447 l 160 76 l 547 76 z "},"F":{"ha":650,"x_min":32,"x_max":731,"o":"m 32 0 l 253 928 l 731 928 l 713 853 l 338 853 l 258 514 l 611 514 l 593 436 l 239 436 l 136 0 l 32 0 z "},"G":{"ha":863,"x_min":81,"x_max":876,"o":"m 401 -8 q 210 14 281 -8 q 110 81 140 36 q 81 200 81 126 q 92 314 81 250 q 125 469 103 378 q 219 758 171 664 q 358 894 268 853 q 622 936 449 936 q 767 925 699 936 q 876 900 836 914 l 851 826 q 744 851 811 840 q 611 863 676 863 q 413 831 481 863 q 307 721 346 800 q 229 472 268 642 q 193 300 204 358 q 182 200 182 242 q 203 117 182 146 q 274 77 225 89 q 414 65 324 65 q 614 103 521 65 l 690 424 l 482 424 l 499 496 l 800 496 l 693 44 q 585 10 664 29 q 401 -8 506 -8 z "},"H":{"ha":886,"x_min":32,"x_max":903,"o":"m 683 0 l 582 0 l 686 442 l 239 442 l 135 0 l 32 0 l 251 928 l 354 928 l 257 521 l 706 521 l 801 928 l 903 928 l 683 0 z "},"I":{"ha":336,"x_min":32,"x_max":354,"o":"m 32 0 l 251 928 l 354 928 l 135 0 l 32 0 z "},"J":{"ha":388,"x_min":-74,"x_max":419,"o":"m -49 79 q 73 118 10 78 q 164 276 136 158 l 317 928 l 419 928 l 265 276 q 157 66 232 135 q -57 -3 82 -3 l -74 -1 l -49 79 z "},"K":{"ha":772,"x_min":36,"x_max":871,"o":"m 358 928 l 139 0 l 36 0 l 256 928 l 358 928 m 376 475 l 649 0 l 551 0 q 528 15 536 0 l 264 481 l 747 928 l 871 928 l 376 475 z "},"L":{"ha":619,"x_min":32,"x_max":536,"o":"m 536 81 l 518 0 l 32 0 l 253 928 l 356 928 l 156 81 l 536 81 z "},"M":{"ha":1103,"x_min":40,"x_max":1107,"o":"m 422 928 l 472 436 q 500 143 492 244 l 504 143 q 654 417 567 261 l 931 906 q 946 922 936 915 q 965 928 956 928 l 1107 928 l 888 0 l 789 0 l 990 846 q 892 673 935 749 q 817 542 849 597 l 742 411 l 504 0 l 443 0 q 427 6 433 0 q 421 22 421 13 l 381 431 q 363 600 368 550 l 338 844 l 138 0 l 40 0 l 260 928 l 422 928 z "},"N":{"ha":906,"x_min":32,"x_max":924,"o":"m 251 928 l 361 928 l 514 507 l 543 426 l 640 147 l 725 501 l 826 928 l 924 928 l 704 0 l 613 0 q 599 3 606 0 q 592 13 593 7 l 433 449 l 314 788 l 129 0 l 32 0 l 251 928 z "},"O":{"ha":907,"x_min":79,"x_max":879,"o":"m 594 938 q 763 917 701 938 q 852 853 825 897 q 879 738 879 810 q 869 628 879 690 q 838 475 858 565 q 745 177 790 274 q 616 36 700 81 q 371 -8 532 -8 q 197 13 261 -8 q 106 76 133 33 q 79 189 79 118 q 91 306 79 239 q 126 475 103 372 q 217 762 171 668 q 349 897 264 856 q 594 938 435 938 m 578 863 q 401 833 461 863 q 305 725 340 803 q 229 475 269 647 q 190 292 201 351 q 179 192 179 233 q 199 113 179 140 q 264 76 219 86 q 389 65 308 65 q 562 98 503 65 q 656 213 621 131 q 733 475 692 294 q 769 643 758 586 q 781 739 781 700 q 761 815 781 789 q 699 852 742 842 q 578 863 656 863 z "},"P":{"ha":749,"x_min":32,"x_max":779,"o":"m 583 928 q 736 901 693 928 q 779 806 779 875 q 757 663 779 758 q 700 485 729 540 q 614 409 671 431 q 442 388 557 388 q 296 413 333 388 q 257 478 258 439 q 428 463 351 463 q 560 481 518 463 q 618 535 601 499 q 654 663 635 572 q 666 719 656 672 q 676 790 676 765 q 664 831 676 818 q 622 849 651 844 q 532 853 592 853 l 335 853 l 133 0 l 32 0 l 253 928 l 583 928 z "},"Q":{"ha":894,"x_min":78,"x_max":878,"o":"m 593 938 q 762 917 700 938 q 851 854 824 897 q 878 739 878 811 q 835 475 878 651 q 743 177 788 274 q 615 36 699 81 q 371 -8 532 -8 q 197 13 261 -8 q 106 76 133 33 q 78 189 78 118 q 90 303 78 238 q 126 475 101 368 q 217 762 171 668 q 349 897 264 856 q 593 938 433 938 m 579 863 q 401 833 461 863 q 306 724 342 803 q 231 474 269 646 q 191 294 203 357 q 179 190 179 232 q 199 113 179 140 q 264 76 219 86 q 389 65 308 65 q 561 98 503 65 q 655 212 619 131 q 732 474 690 293 q 769 644 758 588 q 779 739 779 700 q 760 815 779 789 q 698 852 740 842 q 579 863 656 863 m 608 -69 q 691 -84 661 -69 q 719 -137 721 -99 l 433 -137 q 351 -123 381 -137 q 324 -69 322 -108 l 608 -69 z "},"R":{"ha":775,"x_min":32,"x_max":778,"o":"m 578 928 q 733 901 689 928 q 778 804 778 874 q 757 668 778 761 q 711 523 733 571 q 642 447 689 475 q 506 410 596 418 l 629 0 l 546 0 q 531 5 538 0 q 522 18 524 10 l 401 414 q 294 443 328 418 q 260 499 261 468 q 432 485 353 485 q 562 502 521 485 q 619 553 603 519 q 653 667 635 586 q 668 737 661 704 q 675 788 675 769 q 644 840 675 826 q 529 853 614 853 l 335 853 l 132 0 l 32 0 l 253 928 l 578 928 z "},"S":{"ha":711,"x_min":15,"x_max":735,"o":"m 49 119 q 91 102 56 117 q 174 76 126 88 q 268 65 222 65 q 444 131 381 65 q 508 306 508 197 q 492 372 508 346 q 449 413 475 397 q 374 450 424 428 q 353 459 365 454 q 326 471 342 464 q 214 544 249 506 q 179 642 179 582 q 221 799 179 732 q 338 901 263 865 q 511 938 414 938 q 735 896 632 938 l 700 825 q 500 864 589 864 q 342 811 401 864 q 282 671 282 758 q 313 597 282 626 q 417 536 344 568 l 443 525 q 536 478 503 499 q 591 424 569 458 q 613 336 613 390 q 520 84 613 176 q 265 -8 428 -8 q 131 6 189 -8 q 15 44 72 21 l 49 119 z "},"T":{"ha":639,"x_min":125,"x_max":758,"o":"m 486 847 l 286 0 l 185 0 l 385 847 l 125 847 l 144 928 l 758 928 l 740 847 l 486 847 z "},"U":{"ha":842,"x_min":75,"x_max":876,"o":"m 769 472 q 680 177 722 274 q 559 36 638 81 q 335 -8 481 -8 q 133 36 192 -8 q 75 182 75 81 q 88 303 75 233 q 124 472 100 372 l 231 928 l 332 928 l 225 472 q 185 290 197 354 q 172 185 172 226 q 190 113 172 138 q 245 78 207 88 q 353 68 283 68 q 506 101 453 68 q 592 214 558 133 q 667 471 625 294 l 775 928 l 876 928 l 769 472 z "},"V":{"ha":738,"x_min":149,"x_max":853,"o":"m 853 928 l 333 0 l 253 0 q 238 6 243 0 q 231 22 232 13 l 149 928 l 246 928 l 282 429 q 306 115 299 224 l 310 115 q 475 422 374 239 l 753 928 l 853 928 z "},"W":{"ha":1138,"x_min":151,"x_max":1250,"o":"m 1250 928 l 788 0 l 675 0 l 672 469 q 671 700 671 544 l 671 799 l 517 472 l 290 0 l 175 0 l 151 928 l 249 928 l 256 519 l 258 392 q 264 125 261 303 l 268 125 q 450 518 339 285 l 631 904 q 646 922 636 915 q 667 928 656 928 l 761 928 l 758 515 l 757 125 l 760 125 q 950 511 844 301 l 1157 928 l 1250 928 z "},"X":{"ha":738,"x_min":-71,"x_max":853,"o":"m 474 474 l 644 0 l 536 0 l 393 408 l 56 15 q 25 0 44 0 l -71 0 l 339 474 l 169 928 l 272 928 l 419 540 l 731 911 q 761 928 742 928 l 853 928 l 474 474 z "},"Y":{"ha":697,"x_min":149,"x_max":813,"o":"m 294 368 l 149 928 l 251 928 l 300 719 l 311 676 q 334 578 321 633 q 363 453 347 522 l 367 453 q 558 719 431 544 l 711 928 l 813 928 l 399 368 l 311 0 l 208 0 l 294 368 z "},"Z":{"ha":664,"x_min":-33,"x_max":728,"o":"m 728 928 l 713 861 l 104 78 l 529 78 l 511 0 l -33 0 l -19 60 l 593 850 l 171 850 l 189 928 l 728 928 z "},"[":{"ha":425,"x_min":-29,"x_max":522,"o":"m -29 -200 l 242 942 l 522 942 l 504 871 l 300 871 l 64 -128 l 268 -128 l 253 -200 l -29 -200 z "},"\\":{"ha":540,"x_min":49,"x_max":465,"o":"m 124 929 l 465 -207 l 389 -207 l 49 929 l 124 929 z "},"]":{"ha":425,"x_min":-83,"x_max":468,"o":"m 468 943 l 197 -199 l -83 -199 l -65 -128 l 139 -128 l 375 871 l 171 871 l 186 943 l 468 943 z "},"^":{"ha":765,"x_min":261,"x_max":674,"o":"m 421 928 l 514 928 l 674 667 l 592 667 l 467 860 l 343 667 l 261 667 l 421 928 z "},"_":{"ha":694,"x_min":-118,"x_max":594,"o":"m 578 -150 l -118 -150 l -103 -82 l 594 -82 l 578 -150 z "},"`":{"ha":672,"x_min":299,"x_max":496,"o":"m 393 1014 l 496 824 q 423 849 453 829 q 371 901 393 868 l 299 1014 l 393 1014 z "},"a":{"ha":769,"x_min":53,"x_max":740,"o":"m 261 -7 q 101 29 149 -7 q 53 153 53 65 q 86 356 53 219 q 160 585 129 517 q 258 689 190 654 q 463 724 325 724 q 613 714 549 724 q 740 681 678 704 l 578 0 l 483 0 l 628 624 q 553 642 589 636 q 443 647 517 647 q 303 622 349 647 q 233 539 257 597 q 176 342 208 481 q 153 231 160 271 q 146 164 146 192 q 181 88 146 108 q 304 68 215 68 q 490 90 400 68 q 449 45 482 68 q 365 8 415 22 q 261 -7 315 -7 z "},"b":{"ha":768,"x_min":65,"x_max":713,"o":"m 297 -7 q 117 31 168 -7 q 65 149 65 68 q 74 235 65 189 q 104 375 83 281 l 256 1011 l 324 1011 q 341 1003 335 1011 q 346 982 347 994 l 199 369 q 169 238 178 286 q 160 158 160 190 q 193 87 160 106 q 313 68 226 68 q 461 92 414 68 q 531 172 508 117 q 583 364 553 228 q 607 476 597 425 q 617 556 617 526 q 583 628 617 610 q 458 647 549 647 q 272 625 361 647 q 357 693 289 664 q 510 722 425 722 q 667 686 622 722 q 713 571 713 650 q 682 376 713 510 q 617 150 650 226 q 510 33 583 74 q 297 -7 438 -7 z "},"c":{"ha":617,"x_min":54,"x_max":638,"o":"m 297 -7 q 153 9 206 -7 q 77 60 100 25 q 54 156 54 96 q 86 360 54 221 q 163 590 124 517 q 270 693 201 664 q 471 722 339 722 q 564 715 517 722 q 638 699 611 708 l 608 622 q 539 640 582 633 q 457 647 496 647 q 315 627 361 647 q 240 549 268 607 q 181 356 213 490 q 154 232 163 275 q 146 160 146 189 q 162 104 146 124 q 214 77 178 85 q 317 69 250 69 q 485 86 411 69 l 476 11 q 297 -7 392 -7 z "},"d":{"ha":782,"x_min":53,"x_max":814,"o":"m 260 -8 q 101 28 149 -8 q 53 151 53 64 q 82 340 53 215 q 150 570 119 496 q 244 683 181 644 q 432 722 308 722 q 632 626 607 722 l 722 1011 l 790 1011 q 808 1003 801 1011 q 811 982 814 994 l 578 0 l 483 0 l 592 457 q 604 542 604 513 q 568 620 604 593 q 439 647 532 647 q 299 621 344 647 q 231 536 254 594 q 176 342 208 478 q 147 165 147 217 q 181 89 147 110 q 303 68 215 68 q 397 73 354 68 q 490 90 440 78 q 408 21 475 50 q 260 -8 342 -8 z "},"e":{"ha":721,"x_min":50,"x_max":676,"o":"m 279 -6 q 142 9 192 -6 q 71 55 92 24 q 50 139 50 86 q 59 224 50 176 q 88 361 68 272 q 154 583 122 513 q 253 688 186 654 q 451 722 319 722 q 626 677 576 722 q 676 563 676 632 q 573 371 676 426 q 271 315 469 315 q 168 318 240 315 q 140 160 140 203 q 176 85 140 106 q 303 65 211 65 q 449 77 394 65 q 544 104 504 89 l 542 29 q 447 5 500 15 q 279 -6 394 -6 m 185 382 q 410 394 326 382 q 542 444 494 406 q 589 561 589 483 q 556 626 589 603 q 436 650 522 650 q 307 631 349 649 q 240 560 265 613 q 185 382 215 507 z "},"f":{"ha":424,"x_min":-150,"x_max":561,"o":"m 472 943 q 401 921 426 943 q 365 851 376 899 l 329 714 l 492 714 l 475 643 l 314 643 l 156 -28 q 64 -214 126 -149 q -110 -279 1 -279 q -150 -275 -129 -279 l -136 -211 q -19 -173 -72 -212 q 58 -28 33 -133 l 217 643 l 104 643 l 119 714 l 233 714 l 267 854 q 471 1013 301 1013 q 561 1008 510 1013 l 539 939 q 472 943 514 943 z "},"g":{"ha":776,"x_min":-12,"x_max":756,"o":"m 583 -8 q 467 -213 550 -154 q 232 -274 385 -272 q 101 -267 171 -274 q -12 -249 31 -260 l 10 -176 q 117 -194 53 -187 q 240 -201 181 -201 q 401 -156 336 -200 q 490 -1 465 -111 l 600 461 q 613 544 613 514 q 576 621 613 594 q 446 647 539 647 q 308 622 353 647 q 241 540 264 597 q 188 346 218 482 q 166 241 175 289 q 157 165 157 193 q 172 106 157 126 q 222 78 188 86 q 319 71 257 71 q 500 93 407 71 q 416 23 485 50 q 263 -4 347 -4 q 110 32 157 -4 q 64 157 64 68 q 92 342 64 226 q 158 571 128 497 q 253 683 189 644 q 440 722 317 722 q 640 626 614 722 l 661 714 l 756 714 l 583 -8 z "},"h":{"ha":783,"x_min":32,"x_max":726,"o":"m 367 1011 l 128 0 l 32 0 l 271 1011 l 367 1011 m 539 0 q 512 10 521 0 q 506 36 503 21 l 608 471 q 620 522 615 496 q 625 564 625 547 q 594 623 625 603 q 482 643 563 643 q 288 629 396 643 q 378 699 314 676 q 536 722 443 722 q 683 691 640 722 q 726 597 726 660 q 713 500 726 560 l 594 0 l 539 0 z "},"i":{"ha":331,"x_min":32,"x_max":369,"o":"m 304 881 q 256 898 272 881 q 239 944 239 915 q 256 992 239 974 q 304 1010 272 1010 q 352 991 335 1010 q 369 944 369 972 q 353 898 369 915 q 304 881 336 881 m 32 0 l 200 714 l 297 714 l 128 0 l 32 0 z "},"j":{"ha":322,"x_min":-135,"x_max":375,"o":"m 310 881 q 261 898 278 881 q 244 944 244 915 q 261 992 244 974 q 310 1010 278 1010 q 358 991 340 1010 q 375 944 375 972 q 358 898 375 915 q 310 881 342 881 m -124 -207 q -28 -154 -65 -199 q 28 -31 8 -110 l 206 714 l 301 714 l 126 -25 q 60 -186 103 -124 q -69 -268 17 -249 q -135 -275 -104 -275 l -124 -207 z "},"k":{"ha":706,"x_min":32,"x_max":747,"o":"m 367 1011 l 128 0 l 32 0 l 271 1011 l 367 1011 m 339 371 l 579 0 l 494 0 q 477 5 483 0 q 463 22 471 10 l 229 376 l 626 714 l 747 714 l 339 371 z "},"l":{"ha":332,"x_min":32,"x_max":368,"o":"m 271 1011 l 368 1011 l 128 0 l 32 0 l 271 1011 z "},"m":{"ha":1201,"x_min":32,"x_max":1143,"o":"m 515 0 q 488 10 497 0 q 482 36 479 21 l 594 511 q 604 578 604 550 q 574 633 604 619 q 468 647 544 647 q 289 633 407 647 q 375 701 313 679 q 519 722 438 722 q 651 703 607 721 q 701 635 694 686 q 794 704 740 686 q 940 722 849 722 q 1096 691 1049 722 q 1143 590 1143 660 q 1131 503 1143 553 l 1011 0 l 957 0 q 928 10 938 0 q 922 36 919 21 l 1031 494 q 1043 575 1043 544 q 1013 632 1043 617 q 906 647 983 647 q 805 640 843 647 q 738 604 767 632 q 693 518 708 576 l 572 0 l 515 0 m 200 714 l 296 714 l 128 0 l 32 0 l 200 714 z "},"n":{"ha":783,"x_min":32,"x_max":726,"o":"m 540 0 q 512 10 521 0 q 506 36 503 21 l 610 475 q 628 571 628 544 q 597 628 628 610 q 485 647 565 647 q 289 633 397 647 q 538 722 339 722 q 684 691 642 722 q 726 597 726 660 q 713 500 726 560 l 594 0 l 540 0 m 200 714 l 296 714 l 128 0 l 32 0 l 200 714 z "},"o":{"ha":765,"x_min":54,"x_max":710,"o":"m 467 722 q 656 685 601 722 q 710 563 710 647 q 676 361 710 501 q 609 134 642 206 q 506 28 576 63 q 296 -7 436 -7 q 108 31 161 -7 q 54 156 54 69 q 86 356 54 224 q 157 583 122 510 q 261 689 192 656 q 467 722 331 722 m 451 647 q 313 626 358 647 q 241 547 267 604 q 186 361 215 490 l 178 324 q 154 217 161 254 q 147 154 147 181 q 163 100 147 118 q 213 75 178 82 q 314 68 249 68 q 459 90 414 68 q 526 166 504 111 q 581 360 549 221 q 607 483 599 439 q 615 557 615 528 q 600 613 615 594 q 550 640 585 632 q 451 647 515 647 z "},"p":{"ha":786,"x_min":-32,"x_max":728,"o":"m 201 714 l 297 714 l 190 261 q 176 174 176 197 q 213 94 176 121 q 342 67 250 67 q 481 93 436 67 q 549 178 526 119 q 604 376 572 238 q 633 550 633 500 q 599 626 633 606 q 476 646 565 646 q 381 642 424 646 q 289 625 339 638 q 372 694 304 665 q 521 722 440 722 q 680 685 632 722 q 728 560 728 647 q 700 372 728 490 q 631 143 663 217 q 535 31 600 69 q 347 -8 471 -8 q 149 88 174 -8 l 63 -275 l -32 -275 l 201 714 z "},"q":{"ha":761,"x_min":51,"x_max":699,"o":"m 567 344 q 597 477 588 431 q 606 556 606 524 q 572 628 606 610 q 451 647 539 647 q 303 623 351 647 q 233 542 256 599 q 179 350 210 485 q 157 240 167 290 q 147 161 147 190 q 181 88 147 107 q 307 68 215 68 q 494 90 406 68 q 411 20 476 47 q 256 -7 346 -7 q 97 29 143 -7 q 51 144 51 65 q 82 339 51 207 q 149 565 115 490 q 255 681 182 640 q 468 722 328 722 q 647 683 596 722 q 699 563 699 644 q 690 472 699 522 q 661 340 681 421 l 515 -274 l 419 -274 l 567 344 z "},"r":{"ha":475,"x_min":32,"x_max":535,"o":"m 200 714 l 294 714 l 261 597 l 264 597 q 435 711 304 696 q 494 717 463 715 q 535 718 525 718 l 507 646 q 411 639 458 646 q 308 606 351 631 q 254 538 265 582 l 128 0 l 32 0 l 200 714 z "},"s":{"ha":610,"x_min":-7,"x_max":596,"o":"m 210 -8 q 88 3 136 -8 q -7 32 39 14 l 22 104 q 109 75 65 86 q 219 64 153 64 q 364 101 314 64 q 414 219 414 138 q 384 287 414 263 q 282 342 354 311 q 148 418 186 383 q 110 503 110 453 q 188 667 110 611 q 396 722 265 722 q 513 713 468 722 q 596 685 557 703 l 565 615 q 492 641 528 632 q 386 650 456 650 q 253 619 303 650 q 204 525 204 588 q 222 477 204 497 q 266 443 239 457 q 350 406 293 429 q 472 333 436 369 q 508 243 508 297 q 432 54 508 117 q 210 -8 356 -8 z "},"t":{"ha":438,"x_min":92,"x_max":483,"o":"m 226 -7 q 92 106 92 -7 q 100 165 92 132 l 214 644 l 101 644 l 117 714 l 228 714 l 269 886 l 371 911 l 322 714 l 483 714 l 467 644 l 307 644 l 193 161 q 188 115 188 138 q 204 75 188 86 q 260 64 221 64 q 325 65 294 64 l 314 -1 q 226 -7 274 -7 z "},"u":{"ha":783,"x_min":57,"x_max":750,"o":"m 247 -7 q 99 24 142 -7 q 57 118 57 54 q 71 214 57 154 l 190 714 l 244 714 q 272 703 263 714 q 278 678 281 693 l 175 243 q 166 203 174 236 q 158 146 158 169 q 189 88 158 107 q 300 69 219 69 q 494 82 400 69 q 247 -7 446 -7 m 654 714 l 750 714 l 581 0 l 486 0 l 654 714 z "},"v":{"ha":639,"x_min":104,"x_max":700,"o":"m 203 0 q 179 21 182 0 l 104 714 l 201 714 l 233 328 l 250 97 l 253 97 q 363 294 310 204 l 379 325 l 603 714 l 700 714 l 279 0 l 203 0 z "},"w":{"ha":1033,"x_min":104,"x_max":1094,"o":"m 104 714 l 196 714 l 210 385 q 219 147 215 225 l 221 104 l 224 104 q 367 376 276 211 l 535 689 q 551 707 542 700 q 569 714 560 714 l 654 714 l 671 372 l 683 103 l 686 103 q 815 360 740 214 l 1000 714 l 1094 714 l 726 0 l 626 0 q 604 24 607 0 l 588 331 q 583 434 586 389 q 579 511 581 479 l 575 601 l 574 601 l 429 332 l 253 0 l 135 0 l 104 714 z "},"x":{"ha":633,"x_min":-61,"x_max":676,"o":"m 381 364 l 524 0 l 421 0 l 307 306 l 58 17 q 28 0 49 0 l -61 0 l 246 365 l 125 714 l 225 714 l 329 422 l 554 694 q 589 714 567 714 l 676 714 l 381 364 z "},"y":{"ha":640,"x_min":-112,"x_max":701,"o":"m -87 -203 l -67 -204 q 74 -150 14 -204 q 190 3 135 -96 q 179 21 181 10 l 104 714 l 201 714 l 232 349 q 254 99 242 251 l 257 99 q 385 328 325 224 l 606 714 l 701 714 l 271 -17 q 163 -174 214 -118 q 56 -256 113 -231 q -79 -281 -1 -281 l -112 -279 l -87 -203 z "},"z":{"ha":625,"x_min":-37,"x_max":654,"o":"m -24 61 l 353 463 l 525 644 l 133 644 l 150 714 l 654 714 l 640 651 l 231 211 l 96 69 l 515 69 l 499 0 l -37 0 l -24 61 z "},"{":{"ha":379,"x_min":57,"x_max":475,"o":"m 197 -206 q 92 -185 128 -208 q 57 -107 57 -162 q 68 -36 57 -81 l 136 254 q 142 294 142 275 q 124 336 142 324 q 65 349 106 349 l 82 417 q 158 438 132 417 q 197 511 185 458 l 263 789 q 305 901 279 864 q 369 950 331 938 q 475 960 408 963 l 458 889 q 381 868 407 889 q 342 793 354 847 l 274 507 q 238 426 260 450 q 169 386 215 401 q 211 355 199 369 q 224 313 224 340 q 217 260 224 288 l 144 -37 q 138 -85 138 -69 q 156 -124 138 -112 q 215 -135 174 -135 l 197 -206 z "},"|":{"ha":619,"x_min":282,"x_max":356,"o":"m 282 933 l 356 933 l 356 -282 l 282 -282 l 282 933 z "},"}":{"ha":381,"x_min":-85,"x_max":333,"o":"m -67 -135 q 10 -113 -17 -135 q 49 -37 36 -92 l 119 260 q 157 347 135 322 q 225 386 179 372 q 184 420 197 403 q 171 465 171 438 q 176 507 171 485 l 244 793 q 251 842 251 825 q 234 879 251 869 q 175 889 217 889 l 192 960 q 298 940 263 963 q 333 861 333 917 q 322 789 333 833 l 257 511 q 251 471 251 489 q 269 429 251 442 q 328 417 288 417 l 311 349 q 234 327 260 349 q 196 254 208 306 l 126 -36 q 84 -145 110 -108 q 19 -195 58 -182 q -85 -206 -19 -208 l -67 -135 z "},"~":{"ha":763,"x_min":190,"x_max":604,"o":"m 190 389 q 204 439 192 414 q 249 484 218 474 q 321 496 281 494 q 414 476 356 496 q 445 468 421 475 q 489 461 469 461 q 540 467 521 461 q 576 483 558 474 q 604 499 593 493 q 594 453 604 482 q 549 405 582 418 q 478 392 515 392 q 431 397 456 392 q 385 410 407 403 q 311 425 339 425 q 260 418 282 425 q 218 402 238 411 q 190 389 199 393 z "},"Á":{"ha":790,"x_min":-60,"x_max":744,"o":"m 460 906 q 474 922 465 915 q 493 928 483 928 l 593 928 l 686 0 l 583 0 l 556 313 l 224 313 l 47 0 l -60 0 l 460 906 m 550 388 l 535 581 l 515 836 l 513 836 q 408 647 467 749 l 369 578 l 263 388 l 550 388 m 628 1060 q 551 1007 593 1025 q 456 982 510 989 l 649 1172 l 744 1172 l 628 1060 z "},"Â":{"ha":790,"x_min":-60,"x_max":729,"o":"m 460 906 q 474 922 465 915 q 493 928 483 928 l 593 928 l 686 0 l 583 0 l 556 313 l 224 313 l 47 0 l -60 0 l 460 906 m 550 388 l 535 581 l 515 836 l 513 836 q 408 647 467 749 l 369 578 l 263 388 l 550 388 m 729 983 q 676 1001 696 989 q 638 1038 656 1014 q 582 1122 621 1061 q 451 1019 496 1046 q 351 983 406 992 l 542 1172 l 629 1172 l 729 983 z "},"Ä":{"ha":790,"x_min":-60,"x_max":738,"o":"m 460 906 q 474 922 465 915 q 493 928 483 928 l 593 928 l 686 0 l 583 0 l 556 313 l 224 313 l 47 0 l -60 0 l 460 906 m 550 388 l 535 581 l 515 836 l 513 836 q 408 647 467 749 l 369 578 l 263 388 l 550 388 m 454 1044 q 414 1060 428 1044 q 400 1103 400 1076 q 414 1146 400 1129 q 454 1163 428 1163 q 494 1146 481 1163 q 508 1103 508 1129 q 495 1060 508 1075 q 454 1044 482 1044 m 683 1044 q 643 1060 657 1044 q 629 1103 629 1076 q 643 1146 629 1129 q 683 1163 657 1163 q 724 1146 710 1163 q 738 1103 738 1129 q 724 1060 738 1075 q 683 1044 711 1044 z "},"À":{"ha":790,"x_min":-60,"x_max":686,"o":"m 460 906 q 474 922 465 915 q 493 928 483 928 l 593 928 l 686 0 l 583 0 l 556 313 l 224 313 l 47 0 l -60 0 l 460 906 m 550 388 l 535 581 l 515 836 l 513 836 q 408 647 467 749 l 369 578 l 263 388 l 550 388 m 524 1172 l 665 989 q 576 1013 614 993 q 503 1071 539 1033 l 417 1174 l 524 1172 z "},"Å":{"ha":790,"x_min":-60,"x_max":692,"o":"m 460 906 q 474 922 465 915 q 493 928 483 928 l 593 928 l 686 0 l 583 0 l 556 313 l 224 313 l 47 0 l -60 0 l 460 906 m 550 388 l 535 581 l 515 836 l 513 836 q 408 647 467 749 l 369 578 l 263 388 l 550 388 m 596 1221 q 670 1206 649 1221 q 692 1161 692 1190 q 683 1111 692 1147 q 662 1042 672 1064 q 624 1008 651 1019 q 542 996 597 996 q 467 1011 488 996 q 446 1057 446 1026 q 454 1111 446 1069 q 476 1177 464 1156 q 516 1210 489 1199 q 596 1221 543 1221 m 588 1183 q 542 1177 557 1183 q 522 1157 528 1171 q 508 1111 515 1143 q 497 1056 497 1069 q 508 1038 497 1042 q 551 1035 518 1035 q 596 1039 583 1035 q 615 1058 608 1043 q 631 1111 622 1072 q 640 1160 640 1150 q 629 1178 640 1174 q 588 1183 618 1183 z "},"Ã":{"ha":790,"x_min":-60,"x_max":776,"o":"m 460 906 q 474 922 465 915 q 493 928 483 928 l 593 928 l 686 0 l 583 0 l 556 313 l 224 313 l 47 0 l -60 0 l 460 906 m 550 388 l 535 581 l 515 836 l 513 836 q 408 647 467 749 l 369 578 l 263 388 l 550 388 m 363 1026 q 404 1115 365 1089 q 492 1140 443 1140 q 539 1135 514 1140 q 586 1122 564 1129 q 661 1107 635 1107 q 709 1114 690 1107 q 750 1136 728 1121 l 776 1151 q 738 1064 775 1092 q 654 1036 701 1036 q 605 1042 631 1036 q 557 1054 579 1047 q 483 1069 508 1069 q 435 1061 457 1069 q 392 1042 413 1053 q 363 1026 372 1032 z "},"Æ":{"ha":1150,"x_min":-64,"x_max":1211,"o":"m 813 853 l 735 525 l 1075 525 l 1056 447 l 717 447 l 629 76 l 1010 76 l 992 0 l 513 0 l 586 317 l 296 317 l 43 0 l -64 0 l 661 910 q 696 928 675 928 l 1211 928 l 1193 853 l 813 853 m 714 849 l 353 390 l 603 390 l 714 849 z "},"Ç":{"ha":758,"x_min":78,"x_max":808,"o":"m 588 863 q 406 834 467 863 q 307 726 344 806 q 231 472 269 646 q 192 291 203 347 q 181 193 181 235 q 201 115 181 142 q 269 77 222 88 q 403 67 317 67 q 516 76 472 67 q 611 106 560 85 l 601 29 q 393 -8 507 -7 l 379 -64 q 478 -136 478 -62 q 324 -289 478 -289 q 267 -287 301 -289 q 208 -281 232 -285 l 221 -228 q 335 -237 258 -237 q 424 -146 424 -237 q 411 -123 424 -131 q 364 -115 399 -115 l 311 -115 l 336 -8 q 135 43 193 -3 q 78 189 78 89 q 90 303 78 238 q 125 468 101 368 q 220 764 172 668 q 352 898 268 860 q 596 936 436 936 q 719 926 671 936 q 808 899 767 915 l 779 825 q 588 863 697 863 z "},"Ð":{"ha":888,"x_min":33,"x_max":858,"o":"m 554 928 q 733 909 668 928 q 828 847 799 890 q 858 729 858 804 q 848 621 858 682 q 817 471 838 560 q 727 173 768 264 q 599 41 686 82 q 335 0 513 0 l 33 0 l 140 449 l 40 449 l 50 494 l 150 494 l 253 928 l 554 928 m 253 494 l 432 494 l 421 449 l 242 449 l 154 78 l 338 78 q 539 107 474 76 q 638 215 604 138 q 714 472 672 292 q 754 717 754 649 q 732 801 754 772 q 660 840 710 829 q 521 850 611 850 l 336 849 l 253 494 z "},"É":{"ha":688,"x_min":39,"x_max":749,"o":"m 547 76 l 529 0 l 39 0 l 260 928 l 749 928 l 731 853 l 343 853 l 265 525 l 611 525 l 592 447 l 247 447 l 160 76 l 547 76 m 597 1060 q 521 1007 563 1025 q 425 982 479 989 l 618 1172 l 714 1172 l 597 1060 z "},"Ê":{"ha":688,"x_min":39,"x_max":749,"o":"m 547 76 l 529 0 l 39 0 l 260 928 l 749 928 l 731 853 l 343 853 l 265 525 l 611 525 l 592 447 l 247 447 l 160 76 l 547 76 m 699 983 q 645 1001 665 989 q 608 1038 625 1014 q 551 1122 590 1061 q 420 1019 465 1046 q 321 983 375 992 l 511 1172 l 599 1172 l 699 983 z "},"Ë":{"ha":688,"x_min":39,"x_max":749,"o":"m 547 76 l 529 0 l 39 0 l 260 928 l 749 928 l 731 853 l 343 853 l 265 525 l 611 525 l 592 447 l 247 447 l 160 76 l 547 76 m 424 1044 q 383 1060 397 1044 q 369 1103 369 1076 q 383 1146 369 1129 q 424 1163 397 1163 q 464 1146 450 1163 q 478 1103 478 1129 q 465 1060 478 1075 q 424 1044 451 1044 m 653 1044 q 613 1060 626 1044 q 599 1103 599 1076 q 613 1146 599 1129 q 653 1163 626 1163 q 693 1146 679 1163 q 707 1103 707 1129 q 694 1060 707 1075 q 653 1044 681 1044 z "},"È":{"ha":688,"x_min":39,"x_max":749,"o":"m 547 76 l 529 0 l 39 0 l 260 928 l 749 928 l 731 853 l 343 853 l 265 525 l 611 525 l 592 447 l 247 447 l 160 76 l 547 76 m 493 1172 l 635 989 q 546 1013 583 993 q 472 1071 508 1033 l 386 1174 l 493 1172 z "},"Í":{"ha":336,"x_min":32,"x_max":507,"o":"m 32 0 l 251 928 l 354 928 l 135 0 l 32 0 m 390 1060 q 314 1007 356 1025 q 218 982 272 989 l 411 1172 l 507 1172 l 390 1060 z "},"Î":{"ha":336,"x_min":32,"x_max":492,"o":"m 32 0 l 251 928 l 354 928 l 135 0 l 32 0 m 492 983 q 438 1001 458 989 q 401 1038 418 1014 q 344 1122 383 1061 q 213 1019 258 1046 q 114 983 168 992 l 304 1172 l 392 1172 l 492 983 z "},"Ï":{"ha":336,"x_min":32,"x_max":500,"o":"m 32 0 l 251 928 l 354 928 l 135 0 l 32 0 m 217 1044 q 176 1060 190 1044 q 163 1103 163 1076 q 176 1146 163 1129 q 217 1163 190 1163 q 257 1146 243 1163 q 271 1103 271 1129 q 258 1060 271 1075 q 217 1044 244 1044 m 446 1044 q 406 1060 419 1044 q 392 1103 392 1076 q 406 1146 392 1129 q 446 1163 419 1163 q 486 1146 472 1163 q 500 1103 500 1129 q 487 1060 500 1075 q 446 1044 474 1044 z "},"Ì":{"ha":336,"x_min":32,"x_max":428,"o":"m 32 0 l 251 928 l 354 928 l 135 0 l 32 0 m 286 1172 l 428 989 q 339 1013 376 993 q 265 1071 301 1033 l 179 1174 l 286 1172 z "},"Ñ":{"ha":906,"x_min":32,"x_max":924,"o":"m 251 928 l 361 928 l 514 507 l 543 426 l 640 147 l 725 501 l 826 928 l 924 928 l 704 0 l 613 0 q 599 3 606 0 q 592 13 593 7 l 433 449 l 314 788 l 129 0 l 32 0 l 251 928 m 415 992 q 457 1080 418 1054 q 544 1106 496 1106 q 592 1100 567 1106 q 639 1088 617 1094 q 714 1072 688 1072 q 762 1079 743 1072 q 803 1101 781 1086 l 829 1117 q 791 1029 828 1057 q 707 1001 754 1001 q 658 1007 683 1001 q 610 1019 632 1013 q 536 1035 561 1035 q 488 1026 510 1035 q 445 1008 465 1018 q 415 992 425 997 z "},"Ó":{"ha":907,"x_min":79,"x_max":879,"o":"m 594 938 q 763 917 701 938 q 852 853 825 897 q 879 738 879 810 q 869 628 879 690 q 838 475 858 565 q 745 177 790 274 q 616 36 700 81 q 371 -8 532 -8 q 197 13 261 -8 q 106 76 133 33 q 79 189 79 118 q 91 306 79 239 q 126 475 103 372 q 217 762 171 668 q 349 897 264 856 q 594 938 435 938 m 578 863 q 401 833 461 863 q 305 725 340 803 q 229 475 269 647 q 190 292 201 351 q 179 192 179 233 q 199 113 179 140 q 264 76 219 86 q 389 65 308 65 q 562 98 503 65 q 656 213 621 131 q 733 475 692 294 q 769 643 758 586 q 781 739 781 700 q 761 815 781 789 q 699 852 742 842 q 578 863 656 863 m 694 1060 q 618 1007 660 1025 q 522 982 576 989 l 715 1172 l 811 1172 l 694 1060 z "},"Ô":{"ha":907,"x_min":79,"x_max":879,"o":"m 594 938 q 763 917 701 938 q 852 853 825 897 q 879 738 879 810 q 869 628 879 690 q 838 475 858 565 q 745 177 790 274 q 616 36 700 81 q 371 -8 532 -8 q 197 13 261 -8 q 106 76 133 33 q 79 189 79 118 q 91 306 79 239 q 126 475 103 372 q 217 762 171 668 q 349 897 264 856 q 594 938 435 938 m 578 863 q 401 833 461 863 q 305 725 340 803 q 229 475 269 647 q 190 292 201 351 q 179 192 179 233 q 199 113 179 140 q 264 76 219 86 q 389 65 308 65 q 562 98 503 65 q 656 213 621 131 q 733 475 692 294 q 769 643 758 586 q 781 739 781 700 q 761 815 781 789 q 699 852 742 842 q 578 863 656 863 m 796 983 q 742 1001 763 989 q 705 1038 722 1014 q 649 1122 688 1061 q 517 1019 563 1046 q 418 983 472 992 l 608 1172 l 696 1172 l 796 983 z "},"Ö":{"ha":907,"x_min":79,"x_max":879,"o":"m 594 938 q 763 917 701 938 q 852 853 825 897 q 879 738 879 810 q 869 628 879 690 q 838 475 858 565 q 745 177 790 274 q 616 36 700 81 q 371 -8 532 -8 q 197 13 261 -8 q 106 76 133 33 q 79 189 79 118 q 91 306 79 239 q 126 475 103 372 q 217 762 171 668 q 349 897 264 856 q 594 938 435 938 m 578 863 q 401 833 461 863 q 305 725 340 803 q 229 475 269 647 q 190 292 201 351 q 179 192 179 233 q 199 113 179 140 q 264 76 219 86 q 389 65 308 65 q 562 98 503 65 q 656 213 621 131 q 733 475 692 294 q 769 643 758 586 q 781 739 781 700 q 761 815 781 789 q 699 852 742 842 q 578 863 656 863 m 521 1044 q 481 1060 494 1044 q 467 1103 467 1076 q 481 1146 467 1129 q 521 1163 494 1163 q 561 1146 547 1163 q 575 1103 575 1129 q 562 1060 575 1075 q 521 1044 549 1044 m 750 1044 q 710 1060 724 1044 q 696 1103 696 1076 q 710 1146 696 1129 q 750 1163 724 1163 q 790 1146 776 1163 q 804 1103 804 1129 q 791 1060 804 1075 q 750 1044 778 1044 z "},"Ò":{"ha":907,"x_min":79,"x_max":879,"o":"m 594 938 q 763 917 701 938 q 852 853 825 897 q 879 738 879 810 q 869 628 879 690 q 838 475 858 565 q 745 177 790 274 q 616 36 700 81 q 371 -8 532 -8 q 197 13 261 -8 q 106 76 133 33 q 79 189 79 118 q 91 306 79 239 q 126 475 103 372 q 217 762 171 668 q 349 897 264 856 q 594 938 435 938 m 578 863 q 401 833 461 863 q 305 725 340 803 q 229 475 269 647 q 190 292 201 351 q 179 192 179 233 q 199 113 179 140 q 264 76 219 86 q 389 65 308 65 q 562 98 503 65 q 656 213 621 131 q 733 475 692 294 q 769 643 758 586 q 781 739 781 700 q 761 815 781 789 q 699 852 742 842 q 578 863 656 863 m 590 1172 l 732 989 q 643 1013 681 993 q 569 1071 606 1033 l 483 1174 l 590 1172 z "},"Ø":{"ha":906,"x_min":79,"x_max":878,"o":"m 811 892 q 878 736 878 847 q 836 475 878 653 q 744 177 789 274 q 616 36 700 81 q 371 -8 532 -8 q 196 14 258 -8 l 133 -75 l 99 -53 l 157 31 q 98 94 117 54 q 79 192 79 133 q 91 309 79 243 q 126 475 103 375 q 217 762 171 668 q 349 897 264 856 q 594 938 433 938 q 774 911 711 938 l 839 1006 l 875 983 l 811 892 m 231 475 q 191 296 203 358 q 179 192 179 233 q 207 106 179 133 l 725 842 q 668 858 703 854 q 578 863 633 863 q 401 833 461 863 q 305 725 340 803 q 231 475 269 647 m 733 475 q 767 634 756 574 q 778 736 778 694 q 758 815 778 788 l 244 83 q 389 65 290 65 q 563 98 504 65 q 656 213 621 131 q 733 475 692 294 z "},"Õ":{"ha":907,"x_min":79,"x_max":879,"o":"m 594 938 q 763 917 701 938 q 852 853 825 897 q 879 738 879 810 q 869 628 879 690 q 838 475 858 565 q 745 177 790 274 q 616 36 700 81 q 371 -8 532 -8 q 197 13 261 -8 q 106 76 133 33 q 79 189 79 118 q 91 306 79 239 q 126 475 103 372 q 217 762 171 668 q 349 897 264 856 q 594 938 435 938 m 578 863 q 401 833 461 863 q 305 725 340 803 q 229 475 269 647 q 190 292 201 351 q 179 192 179 233 q 199 113 179 140 q 264 76 219 86 q 389 65 308 65 q 562 98 503 65 q 656 213 621 131 q 733 475 692 294 q 769 643 758 586 q 781 739 781 700 q 761 815 781 789 q 699 852 742 842 q 578 863 656 863 m 429 1026 q 471 1115 432 1089 q 558 1140 510 1140 q 606 1135 581 1140 q 653 1122 631 1129 q 728 1107 701 1107 q 776 1114 757 1107 q 817 1136 794 1121 l 843 1151 q 805 1064 842 1092 q 721 1036 768 1036 q 672 1042 697 1036 q 624 1054 646 1047 q 550 1069 575 1069 q 501 1061 524 1069 q 459 1042 479 1053 q 429 1026 439 1032 z "},"Œ":{"ha":1226,"x_min":82,"x_max":1288,"o":"m 417 0 q 217 21 289 0 q 113 85 144 42 q 82 204 82 129 q 93 317 82 253 q 126 475 104 382 q 220 759 172 668 q 361 889 268 850 q 636 928 454 928 l 1288 928 l 1269 853 l 888 853 l 811 525 l 1150 525 l 1132 447 l 793 447 l 704 75 l 1086 75 l 1068 0 l 417 0 m 603 75 l 788 853 l 621 853 q 415 824 483 853 q 310 719 347 796 q 233 474 272 643 q 199 310 210 369 q 188 208 188 250 q 210 126 188 154 q 286 86 233 97 q 436 75 339 75 l 603 75 z "},"Þ":{"ha":739,"x_min":29,"x_max":732,"o":"m 536 747 q 688 720 644 747 q 732 625 732 693 q 710 481 732 576 q 653 305 682 360 q 567 228 624 250 q 394 207 510 207 q 208 297 215 207 q 381 282 310 282 q 513 300 471 282 q 571 355 554 318 q 607 482 588 392 q 619 538 608 492 q 629 610 629 585 q 617 651 629 638 q 574 669 604 664 q 486 674 544 674 l 289 674 l 131 0 l 29 0 l 250 928 l 349 928 l 306 747 l 536 747 z "},"Š":{"ha":711,"x_min":15,"x_max":739,"o":"m 49 119 q 91 102 56 117 q 174 76 126 88 q 268 65 222 65 q 444 131 381 65 q 508 306 508 197 q 492 372 508 346 q 449 413 475 397 q 374 450 424 428 q 353 459 365 454 q 326 471 342 464 q 214 544 249 506 q 179 642 179 582 q 221 799 179 732 q 338 901 263 865 q 511 938 414 938 q 735 896 632 938 l 700 825 q 500 864 589 864 q 342 811 401 864 q 282 671 282 758 q 313 597 282 626 q 417 536 344 568 l 443 525 q 536 478 503 499 q 591 424 569 458 q 613 336 613 390 q 520 84 613 176 q 265 -8 428 -8 q 131 6 189 -8 q 15 44 72 21 l 49 119 m 549 990 l 461 990 l 361 1179 q 415 1161 394 1174 q 452 1125 435 1149 q 510 1040 469 1101 q 637 1144 590 1117 q 739 1179 683 1171 l 549 990 z "},"Ú":{"ha":842,"x_min":75,"x_max":876,"o":"m 769 472 q 680 177 722 274 q 559 36 638 81 q 335 -8 481 -8 q 133 36 192 -8 q 75 182 75 81 q 88 303 75 233 q 124 472 100 372 l 231 928 l 332 928 l 225 472 q 185 290 197 354 q 172 185 172 226 q 190 113 172 138 q 245 78 207 88 q 353 68 283 68 q 506 101 453 68 q 592 214 558 133 q 667 471 625 294 l 775 928 l 876 928 l 769 472 m 663 1060 q 586 1007 628 1025 q 490 982 544 989 l 683 1172 l 779 1172 l 663 1060 z "},"Û":{"ha":842,"x_min":75,"x_max":876,"o":"m 769 472 q 680 177 722 274 q 559 36 638 81 q 335 -8 481 -8 q 133 36 192 -8 q 75 182 75 81 q 88 303 75 233 q 124 472 100 372 l 231 928 l 332 928 l 225 472 q 185 290 197 354 q 172 185 172 226 q 190 113 172 138 q 245 78 207 88 q 353 68 283 68 q 506 101 453 68 q 592 214 558 133 q 667 471 625 294 l 775 928 l 876 928 l 769 472 m 764 983 q 710 1001 731 989 q 673 1038 690 1014 q 617 1122 656 1061 q 485 1019 531 1046 q 386 983 440 992 l 576 1172 l 664 1172 l 764 983 z "},"Ü":{"ha":842,"x_min":75,"x_max":876,"o":"m 769 472 q 680 177 722 274 q 559 36 638 81 q 335 -8 481 -8 q 133 36 192 -8 q 75 182 75 81 q 88 303 75 233 q 124 472 100 372 l 231 928 l 332 928 l 225 472 q 185 290 197 354 q 172 185 172 226 q 190 113 172 138 q 245 78 207 88 q 353 68 283 68 q 506 101 453 68 q 592 214 558 133 q 667 471 625 294 l 775 928 l 876 928 l 769 472 m 489 1044 q 449 1060 463 1044 q 435 1103 435 1076 q 449 1146 435 1129 q 489 1163 463 1163 q 529 1146 515 1163 q 543 1103 543 1129 q 530 1060 543 1075 q 489 1044 517 1044 m 718 1044 q 678 1060 692 1044 q 664 1103 664 1076 q 678 1146 664 1129 q 718 1163 692 1163 q 758 1146 744 1163 q 772 1103 772 1129 q 759 1060 772 1075 q 718 1044 746 1044 z "},"Ù":{"ha":842,"x_min":75,"x_max":876,"o":"m 769 472 q 680 177 722 274 q 559 36 638 81 q 335 -8 481 -8 q 133 36 192 -8 q 75 182 75 81 q 88 303 75 233 q 124 472 100 372 l 231 928 l 332 928 l 225 472 q 185 290 197 354 q 172 185 172 226 q 190 113 172 138 q 245 78 207 88 q 353 68 283 68 q 506 101 453 68 q 592 214 558 133 q 667 471 625 294 l 775 928 l 876 928 l 769 472 m 558 1172 l 700 989 q 611 1013 649 993 q 538 1071 574 1033 l 451 1174 l 558 1172 z "},"Ý":{"ha":697,"x_min":149,"x_max":813,"o":"m 294 368 l 149 928 l 251 928 l 300 719 l 311 676 q 334 578 321 633 q 363 453 347 522 l 367 453 q 558 719 431 544 l 711 928 l 813 928 l 399 368 l 311 0 l 208 0 l 294 368 m 583 1060 q 507 1007 549 1025 q 411 982 465 989 l 604 1172 l 700 1172 l 583 1060 z "},"Ÿ":{"ha":697,"x_min":149,"x_max":813,"o":"m 294 368 l 149 928 l 251 928 l 300 719 l 311 676 q 334 578 321 633 q 363 453 347 522 l 367 453 q 558 719 431 544 l 711 928 l 813 928 l 399 368 l 311 0 l 208 0 l 294 368 m 410 1044 q 369 1060 383 1044 q 356 1103 356 1076 q 369 1146 356 1129 q 410 1163 383 1163 q 450 1146 436 1163 q 464 1103 464 1129 q 451 1060 464 1075 q 410 1044 438 1044 m 639 1044 q 599 1060 613 1044 q 585 1103 585 1076 q 599 1146 585 1129 q 639 1163 613 1163 q 679 1146 665 1163 q 693 1103 693 1129 q 680 1060 693 1075 q 639 1044 667 1044 z "},"Ž":{"ha":664,"x_min":-33,"x_max":728,"o":"m 728 928 l 713 861 l 104 78 l 529 78 l 511 0 l -33 0 l -19 60 l 593 850 l 171 850 l 189 928 l 728 928 m 529 990 l 442 990 l 342 1179 q 395 1161 375 1174 q 433 1125 415 1149 q 490 1040 450 1101 q 617 1144 571 1117 q 719 1179 664 1171 l 529 990 z "},"á":{"ha":769,"x_min":53,"x_max":740,"o":"m 261 -7 q 101 29 149 -7 q 53 153 53 65 q 86 356 53 219 q 160 585 129 517 q 258 689 190 654 q 463 724 325 724 q 613 714 549 724 q 740 681 678 704 l 578 0 l 483 0 l 628 624 q 553 642 589 636 q 443 647 517 647 q 303 622 349 647 q 233 539 257 597 q 176 342 208 481 q 153 231 160 271 q 146 164 146 192 q 181 88 146 108 q 304 68 215 68 q 490 90 400 68 q 449 45 482 68 q 365 8 415 22 q 261 -7 315 -7 m 590 911 q 517 854 556 874 q 426 829 479 835 l 568 1013 l 676 1013 l 590 911 z "},"â":{"ha":769,"x_min":53,"x_max":740,"o":"m 261 -7 q 101 29 149 -7 q 53 153 53 65 q 86 356 53 219 q 160 585 129 517 q 258 689 190 654 q 463 724 325 724 q 613 714 549 724 q 740 681 678 704 l 578 0 l 483 0 l 628 624 q 553 642 589 636 q 443 647 517 647 q 303 622 349 647 q 233 539 257 597 q 176 342 208 481 q 153 231 160 271 q 146 164 146 192 q 181 88 146 108 q 304 68 215 68 q 490 90 400 68 q 449 45 482 68 q 365 8 415 22 q 261 -7 315 -7 m 679 831 q 626 850 646 838 q 590 886 607 863 q 533 971 572 910 q 401 866 446 893 q 301 831 356 839 l 492 1019 l 579 1019 l 679 831 z "},"ä":{"ha":769,"x_min":53,"x_max":740,"o":"m 261 -7 q 101 29 149 -7 q 53 153 53 65 q 86 356 53 219 q 160 585 129 517 q 258 689 190 654 q 463 724 325 724 q 613 714 549 724 q 740 681 678 704 l 578 0 l 483 0 l 628 624 q 553 642 589 636 q 443 647 517 647 q 303 622 349 647 q 233 539 257 597 q 176 342 208 481 q 153 231 160 271 q 146 164 146 192 q 181 88 146 108 q 304 68 215 68 q 490 90 400 68 q 449 45 482 68 q 365 8 415 22 q 261 -7 315 -7 m 406 886 q 365 903 379 886 q 351 946 351 919 q 365 988 351 971 q 406 1004 379 1004 q 446 988 432 1004 q 460 946 460 971 q 446 902 460 918 q 406 886 432 886 m 635 886 q 594 903 608 886 q 581 946 581 919 q 594 988 581 971 q 635 1004 608 1004 q 675 988 661 1004 q 689 946 689 971 q 675 902 689 918 q 635 886 661 886 z "},"à":{"ha":769,"x_min":53,"x_max":740,"o":"m 261 -7 q 101 29 149 -7 q 53 153 53 65 q 86 356 53 219 q 160 585 129 517 q 258 689 190 654 q 463 724 325 724 q 613 714 549 724 q 740 681 678 704 l 578 0 l 483 0 l 628 624 q 553 642 589 636 q 443 647 517 647 q 303 622 349 647 q 233 539 257 597 q 176 342 208 481 q 153 231 160 271 q 146 164 146 192 q 181 88 146 108 q 304 68 215 68 q 490 90 400 68 q 449 45 482 68 q 365 8 415 22 q 261 -7 315 -7 m 436 1018 l 539 828 q 466 853 496 833 q 414 906 436 872 l 342 1018 l 436 1018 z "},"å":{"ha":769,"x_min":53,"x_max":740,"o":"m 261 -7 q 101 29 149 -7 q 53 153 53 65 q 86 356 53 219 q 160 585 129 517 q 258 689 190 654 q 463 724 325 724 q 613 714 549 724 q 740 681 678 704 l 578 0 l 483 0 l 628 624 q 553 642 589 636 q 443 647 517 647 q 303 622 349 647 q 233 539 257 597 q 176 342 208 481 q 153 231 160 271 q 146 164 146 192 q 181 88 146 108 q 304 68 215 68 q 490 90 400 68 q 449 45 482 68 q 365 8 415 22 q 261 -7 315 -7 m 546 1078 q 619 1063 599 1078 q 640 1018 640 1047 q 633 967 640 999 q 612 897 622 919 q 574 863 601 875 q 492 851 547 851 q 417 866 438 851 q 396 910 396 881 q 404 967 396 922 q 426 1033 414 1011 q 465 1067 438 1056 q 546 1078 492 1078 m 538 1039 q 492 1033 507 1039 q 472 1013 478 1026 q 458 967 465 1000 q 447 911 447 925 q 458 894 447 897 q 501 890 468 890 q 545 894 532 890 q 565 913 558 899 q 582 967 572 928 q 590 1014 590 1008 q 579 1034 590 1029 q 538 1039 568 1039 z "},"ã":{"ha":769,"x_min":53,"x_max":740,"o":"m 261 -7 q 101 29 149 -7 q 53 153 53 65 q 86 356 53 219 q 160 585 129 517 q 258 689 190 654 q 463 724 325 724 q 613 714 549 724 q 740 681 678 704 l 578 0 l 483 0 l 628 624 q 553 642 589 636 q 443 647 517 647 q 303 622 349 647 q 233 539 257 597 q 176 342 208 481 q 153 231 160 271 q 146 164 146 192 q 181 88 146 108 q 304 68 215 68 q 490 90 400 68 q 449 45 482 68 q 365 8 415 22 q 261 -7 315 -7 m 308 881 q 350 969 311 943 q 438 994 389 994 q 532 975 474 994 q 563 967 539 974 q 607 960 588 960 q 656 967 638 960 q 697 990 675 975 l 722 1006 q 684 918 721 946 q 600 890 647 890 q 551 896 576 890 q 503 908 525 901 q 429 924 454 924 q 382 916 403 924 q 333 893 361 908 l 308 881 z "},"æ":{"ha":1143,"x_min":53,"x_max":1099,"o":"m 889 722 q 1052 678 1006 722 q 1099 565 1099 633 q 1047 409 1099 464 q 910 335 996 354 q 696 317 824 317 q 619 318 646 317 q 592 156 592 200 q 624 85 592 104 q 740 65 657 65 q 874 77 822 65 q 967 104 926 89 l 964 29 q 872 4 922 14 q 717 -6 822 -6 q 548 27 596 -6 q 500 135 500 60 q 510 225 500 174 q 539 361 519 276 q 600 624 560 454 q 527 642 561 636 q 429 647 493 647 q 299 622 342 647 q 232 538 256 597 q 176 342 208 479 q 153 230 160 269 q 146 161 146 190 q 177 88 146 107 q 290 68 208 68 q 374 73 339 68 q 463 90 410 78 q 422 46 454 68 q 342 8 389 24 q 247 -7 296 -7 q 98 29 143 -7 q 53 150 53 65 q 86 356 53 218 q 159 585 129 517 q 253 689 189 654 q 449 724 318 724 q 581 714 521 724 q 697 682 640 704 q 776 713 729 703 q 889 722 822 722 m 1011 563 q 983 627 1011 604 q 879 650 954 650 q 756 632 796 650 q 691 561 715 614 q 636 382 667 508 l 679 382 q 858 395 788 382 q 970 448 929 408 q 1011 563 1011 488 z "},"ç":{"ha":617,"x_min":54,"x_max":638,"o":"m 457 647 q 315 627 361 647 q 240 549 268 607 q 181 356 213 490 q 154 232 163 275 q 146 160 146 189 q 162 104 146 124 q 214 77 178 85 q 317 69 250 69 q 485 86 411 69 l 476 11 q 297 -7 392 -7 l 289 -7 l 275 -62 q 374 -135 374 -61 q 219 -287 374 -287 q 163 -285 197 -287 q 104 -279 128 -283 l 117 -226 q 231 -236 154 -236 q 319 -144 319 -236 q 307 -122 319 -129 q 260 -114 294 -114 l 207 -114 l 232 -4 q 94 40 135 3 q 54 156 54 78 q 86 360 54 221 q 163 590 124 517 q 270 693 201 664 q 471 722 339 722 q 564 715 517 722 q 638 699 611 708 l 608 622 q 539 640 582 633 q 457 647 496 647 z "},"ð":{"ha":807,"x_min":56,"x_max":849,"o":"m 297 -7 q 110 35 164 -7 q 56 164 56 78 q 88 360 56 226 q 148 546 118 483 q 239 641 178 608 q 414 674 300 674 q 493 664 447 674 q 573 633 539 654 q 604 579 607 611 q 432 596 538 596 q 304 576 349 596 q 234 506 260 556 q 185 350 208 456 l 176 317 q 156 224 164 267 q 147 157 147 182 q 183 87 147 106 q 313 68 218 68 q 447 90 404 68 q 512 165 490 111 q 565 350 533 218 l 626 613 q 640 722 640 667 q 624 842 640 782 l 479 786 l 471 825 l 614 881 q 550 1004 596 931 l 642 1038 q 669 992 647 1028 q 704 917 690 956 l 842 969 l 849 929 l 717 878 q 739 729 739 796 q 724 603 739 672 l 668 372 q 597 134 631 208 q 497 26 564 60 q 297 -7 431 -7 z "},"é":{"ha":721,"x_min":50,"x_max":676,"o":"m 279 -6 q 142 9 192 -6 q 71 55 92 24 q 50 139 50 86 q 59 224 50 176 q 88 361 68 272 q 154 583 122 513 q 253 688 186 654 q 451 722 319 722 q 626 677 576 722 q 676 563 676 632 q 573 371 676 426 q 271 315 469 315 q 168 318 240 315 q 140 160 140 203 q 176 85 140 106 q 303 65 211 65 q 449 77 394 65 q 544 104 504 89 l 542 29 q 447 5 500 15 q 279 -6 394 -6 m 185 382 q 410 394 326 382 q 542 444 494 406 q 589 561 589 483 q 556 626 589 603 q 436 650 522 650 q 307 631 349 649 q 240 560 265 613 q 185 382 215 507 m 583 911 q 510 854 549 874 q 419 829 472 835 l 561 1013 l 669 1013 l 583 911 z "},"ê":{"ha":721,"x_min":50,"x_max":676,"o":"m 279 -6 q 142 9 192 -6 q 71 55 92 24 q 50 139 50 86 q 59 224 50 176 q 88 361 68 272 q 154 583 122 513 q 253 688 186 654 q 451 722 319 722 q 626 677 576 722 q 676 563 676 632 q 573 371 676 426 q 271 315 469 315 q 168 318 240 315 q 140 160 140 203 q 176 85 140 106 q 303 65 211 65 q 449 77 394 65 q 544 104 504 89 l 542 29 q 447 5 500 15 q 279 -6 394 -6 m 185 382 q 410 394 326 382 q 542 444 494 406 q 589 561 589 483 q 556 626 589 603 q 436 650 522 650 q 307 631 349 649 q 240 560 265 613 q 185 382 215 507 m 672 831 q 619 850 639 838 q 583 886 600 863 q 526 971 565 910 q 394 866 439 893 q 294 831 349 839 l 485 1019 l 572 1019 l 672 831 z "},"ë":{"ha":721,"x_min":50,"x_max":682,"o":"m 279 -6 q 142 9 192 -6 q 71 55 92 24 q 50 139 50 86 q 59 224 50 176 q 88 361 68 272 q 154 583 122 513 q 253 688 186 654 q 451 722 319 722 q 626 677 576 722 q 676 563 676 632 q 573 371 676 426 q 271 315 469 315 q 168 318 240 315 q 140 160 140 203 q 176 85 140 106 q 303 65 211 65 q 449 77 394 65 q 544 104 504 89 l 542 29 q 447 5 500 15 q 279 -6 394 -6 m 185 382 q 410 394 326 382 q 542 444 494 406 q 589 561 589 483 q 556 626 589 603 q 436 650 522 650 q 307 631 349 649 q 240 560 265 613 q 185 382 215 507 m 399 886 q 358 903 372 886 q 344 946 344 919 q 358 988 344 971 q 399 1004 372 1004 q 439 988 425 1004 q 453 946 453 971 q 439 902 453 918 q 399 886 425 886 m 628 886 q 588 903 601 886 q 574 946 574 919 q 588 988 574 971 q 628 1004 601 1004 q 668 988 654 1004 q 682 946 682 971 q 668 902 682 918 q 628 886 654 886 z "},"è":{"ha":721,"x_min":50,"x_max":676,"o":"m 279 -6 q 142 9 192 -6 q 71 55 92 24 q 50 139 50 86 q 59 224 50 176 q 88 361 68 272 q 154 583 122 513 q 253 688 186 654 q 451 722 319 722 q 626 677 576 722 q 676 563 676 632 q 573 371 676 426 q 271 315 469 315 q 168 318 240 315 q 140 160 140 203 q 176 85 140 106 q 303 65 211 65 q 449 77 394 65 q 544 104 504 89 l 542 29 q 447 5 500 15 q 279 -6 394 -6 m 185 382 q 410 394 326 382 q 542 444 494 406 q 589 561 589 483 q 556 626 589 603 q 436 650 522 650 q 307 631 349 649 q 240 560 265 613 q 185 382 215 507 m 429 1018 l 532 828 q 459 853 489 833 q 407 906 429 872 l 335 1018 l 429 1018 z "},"ı":{"ha":331,"x_min":32,"x_max":297,"o":"m 32 0 l 200 714 l 297 714 l 128 0 l 32 0 z "},"í":{"ha":331,"x_min":32,"x_max":464,"o":"m 32 0 l 200 714 l 297 714 l 128 0 l 32 0 m 378 907 q 305 850 343 869 q 214 825 267 831 l 356 1008 l 464 1008 l 378 907 z "},"î":{"ha":331,"x_min":32,"x_max":467,"o":"m 32 0 l 200 714 l 297 714 l 128 0 l 32 0 m 467 826 q 414 846 433 833 q 377 882 394 858 q 321 967 360 906 q 188 862 233 889 q 89 826 143 835 l 279 1015 l 367 1015 l 467 826 z "},"ï":{"ha":331,"x_min":32,"x_max":476,"o":"m 32 0 l 200 714 l 297 714 l 128 0 l 32 0 m 193 882 q 153 899 167 882 q 139 942 139 915 q 153 983 139 967 q 193 1000 167 1000 q 233 983 219 1000 q 247 942 247 967 q 233 898 247 914 q 193 882 219 882 m 422 882 q 382 899 396 882 q 368 942 368 915 q 382 983 368 967 q 422 1000 396 1000 q 463 983 449 1000 q 476 942 476 967 q 463 898 476 914 q 422 882 449 882 z "},"ì":{"ha":331,"x_min":32,"x_max":326,"o":"m 32 0 l 200 714 l 297 714 l 128 0 l 32 0 m 224 1014 l 326 824 q 253 849 283 829 q 201 901 224 868 l 129 1014 l 224 1014 z "},"ȷ":{"ha":322,"x_min":-135,"x_max":301,"o":"m -124 -207 q -28 -154 -65 -199 q 28 -31 8 -110 l 206 714 l 301 714 l 126 -25 q 60 -186 103 -124 q -69 -268 17 -249 q -135 -275 -104 -275 l -124 -207 z "},"ñ":{"ha":783,"x_min":32,"x_max":740,"o":"m 540 0 q 512 10 521 0 q 506 36 503 21 l 610 475 q 628 571 628 544 q 597 628 628 610 q 485 647 565 647 q 289 633 397 647 q 538 722 339 722 q 684 691 642 722 q 726 597 726 660 q 713 500 726 560 l 594 0 l 540 0 m 200 714 l 296 714 l 128 0 l 32 0 l 200 714 m 326 881 q 368 969 329 943 q 456 994 407 994 q 550 975 492 994 q 581 967 557 974 q 625 960 606 960 q 674 967 656 960 q 715 990 693 975 l 740 1006 q 702 918 739 946 q 618 890 665 890 q 569 896 594 890 q 521 908 543 901 q 447 924 472 924 q 400 916 421 924 q 351 893 379 908 l 326 881 z "},"ó":{"ha":765,"x_min":54,"x_max":710,"o":"m 467 722 q 656 685 601 722 q 710 563 710 647 q 676 361 710 501 q 609 134 642 206 q 506 28 576 63 q 296 -7 436 -7 q 108 31 161 -7 q 54 156 54 69 q 86 356 54 224 q 157 583 122 510 q 261 689 192 656 q 467 722 331 722 m 451 647 q 313 626 358 647 q 241 547 267 604 q 186 361 215 490 l 178 324 q 154 217 161 254 q 147 154 147 181 q 163 100 147 118 q 213 75 178 82 q 314 68 249 68 q 459 90 414 68 q 526 166 504 111 q 581 360 549 221 q 607 483 599 439 q 615 557 615 528 q 600 613 615 594 q 550 640 585 632 q 451 647 515 647 m 590 911 q 517 854 556 874 q 426 829 479 835 l 568 1013 l 676 1013 l 590 911 z "},"ô":{"ha":765,"x_min":54,"x_max":710,"o":"m 467 722 q 656 685 601 722 q 710 563 710 647 q 676 361 710 501 q 609 134 642 206 q 506 28 576 63 q 296 -7 436 -7 q 108 31 161 -7 q 54 156 54 69 q 86 356 54 224 q 157 583 122 510 q 261 689 192 656 q 467 722 331 722 m 451 647 q 313 626 358 647 q 241 547 267 604 q 186 361 215 490 l 178 324 q 154 217 161 254 q 147 154 147 181 q 163 100 147 118 q 213 75 178 82 q 314 68 249 68 q 459 90 414 68 q 526 166 504 111 q 581 360 549 221 q 607 483 599 439 q 615 557 615 528 q 600 613 615 594 q 550 640 585 632 q 451 647 515 647 m 679 831 q 626 850 646 838 q 590 886 607 863 q 533 971 572 910 q 401 866 446 893 q 301 831 356 839 l 492 1019 l 579 1019 l 679 831 z "},"ö":{"ha":765,"x_min":54,"x_max":710,"o":"m 467 722 q 656 685 601 722 q 710 563 710 647 q 676 361 710 501 q 609 134 642 206 q 506 28 576 63 q 296 -7 436 -7 q 108 31 161 -7 q 54 156 54 69 q 86 356 54 224 q 157 583 122 510 q 261 689 192 656 q 467 722 331 722 m 451 647 q 313 626 358 647 q 241 547 267 604 q 186 361 215 490 l 178 324 q 154 217 161 254 q 147 154 147 181 q 163 100 147 118 q 213 75 178 82 q 314 68 249 68 q 459 90 414 68 q 526 166 504 111 q 581 360 549 221 q 607 483 599 439 q 615 557 615 528 q 600 613 615 594 q 550 640 585 632 q 451 647 515 647 m 406 886 q 365 903 379 886 q 351 946 351 919 q 365 988 351 971 q 406 1004 379 1004 q 446 988 432 1004 q 460 946 460 971 q 446 902 460 918 q 406 886 432 886 m 635 886 q 594 903 608 886 q 581 946 581 919 q 594 988 581 971 q 635 1004 608 1004 q 675 988 661 1004 q 689 946 689 971 q 675 902 689 918 q 635 886 661 886 z "},"ò":{"ha":765,"x_min":54,"x_max":710,"o":"m 467 722 q 656 685 601 722 q 710 563 710 647 q 676 361 710 501 q 609 134 642 206 q 506 28 576 63 q 296 -7 436 -7 q 108 31 161 -7 q 54 156 54 69 q 86 356 54 224 q 157 583 122 510 q 261 689 192 656 q 467 722 331 722 m 451 647 q 313 626 358 647 q 241 547 267 604 q 186 361 215 490 l 178 324 q 154 217 161 254 q 147 154 147 181 q 163 100 147 118 q 213 75 178 82 q 314 68 249 68 q 459 90 414 68 q 526 166 504 111 q 581 360 549 221 q 607 483 599 439 q 615 557 615 528 q 600 613 615 594 q 550 640 585 632 q 451 647 515 647 m 436 1018 l 539 828 q 466 853 496 833 q 414 906 436 872 l 342 1018 l 436 1018 z "},"ø":{"ha":767,"x_min":51,"x_max":713,"o":"m 642 693 q 694 642 678 675 q 710 563 710 610 q 702 479 710 525 q 678 361 694 433 q 609 134 642 206 q 506 28 576 63 q 296 -7 436 -7 q 160 7 210 -7 l 88 -97 l 51 -76 l 121 24 q 54 157 54 58 q 86 356 54 225 q 157 583 122 510 q 261 689 192 656 q 467 722 331 722 q 601 708 551 722 l 676 815 l 713 794 l 642 693 m 186 361 q 157 231 165 275 q 149 158 149 188 q 172 96 149 115 l 553 639 q 451 647 517 647 q 311 626 357 647 q 240 548 265 604 q 186 361 215 492 m 581 360 q 606 478 599 438 q 614 549 614 519 q 589 617 614 596 l 210 76 q 314 68 238 68 q 458 90 413 68 q 526 166 503 111 q 581 360 549 221 z "},"õ":{"ha":765,"x_min":54,"x_max":722,"o":"m 467 722 q 656 685 601 722 q 710 563 710 647 q 676 361 710 501 q 609 134 642 206 q 506 28 576 63 q 296 -7 436 -7 q 108 31 161 -7 q 54 156 54 69 q 86 356 54 224 q 157 583 122 510 q 261 689 192 656 q 467 722 331 722 m 451 647 q 313 626 358 647 q 241 547 267 604 q 186 361 215 490 l 178 324 q 154 217 161 254 q 147 154 147 181 q 163 100 147 118 q 213 75 178 82 q 314 68 249 68 q 459 90 414 68 q 526 166 504 111 q 581 360 549 221 q 607 483 599 439 q 615 557 615 528 q 600 613 615 594 q 550 640 585 632 q 451 647 515 647 m 308 881 q 350 969 311 943 q 438 994 389 994 q 532 975 474 994 q 563 967 539 974 q 607 960 588 960 q 656 967 638 960 q 697 990 675 975 l 722 1006 q 684 918 721 946 q 600 890 647 890 q 551 896 576 890 q 503 908 525 901 q 429 924 454 924 q 382 916 403 924 q 333 893 361 908 l 308 881 z "},"œ":{"ha":1174,"x_min":54,"x_max":1131,"o":"m 289 -7 q 106 31 158 -7 q 54 154 54 69 q 86 356 54 221 q 156 583 122 510 q 258 689 190 656 q 460 722 326 722 q 609 699 561 722 q 671 621 657 676 q 763 700 710 678 q 918 722 817 722 q 1131 565 1131 722 q 1033 372 1131 428 q 743 315 935 315 q 646 318 713 315 l 639 285 q 615 150 615 186 q 649 83 615 101 q 769 65 682 65 q 906 77 854 65 q 999 104 957 89 l 997 29 q 902 4 951 14 q 746 -6 853 -6 q 606 15 647 -6 q 549 88 564 35 q 453 14 513 35 q 289 -7 394 -7 m 663 382 q 876 394 797 382 q 999 444 954 406 q 1043 561 1043 483 q 1013 626 1043 603 q 903 650 982 650 q 776 631 815 649 q 716 563 738 613 q 663 382 694 513 m 307 68 q 448 92 404 68 q 513 169 492 115 q 569 372 533 224 q 594 487 586 444 q 601 558 601 529 q 568 629 601 611 q 444 647 535 647 q 310 626 354 647 q 240 547 265 604 q 186 361 215 490 q 179 329 181 339 q 147 153 147 197 q 163 100 147 118 q 211 75 178 82 q 307 68 244 68 z "},"þ":{"ha":788,"x_min":-32,"x_max":729,"o":"m 258 951 l 325 951 q 344 942 339 951 q 347 919 350 933 l 192 258 q 178 172 178 207 q 215 94 178 121 q 343 67 251 67 q 482 93 436 67 q 551 178 528 119 q 606 374 575 238 q 635 550 635 499 q 601 626 635 606 q 478 646 567 646 q 383 642 425 646 q 290 625 340 638 q 374 693 306 665 q 522 721 442 721 q 681 684 633 721 q 729 558 729 647 q 701 372 729 490 q 633 144 664 218 q 538 31 601 69 q 350 -8 474 -8 q 150 88 175 -8 l 64 -275 l -32 -275 l 258 951 z "},"š":{"ha":610,"x_min":-7,"x_max":649,"o":"m 210 -8 q 88 3 136 -8 q -7 32 39 14 l 22 104 q 109 75 65 86 q 219 64 153 64 q 364 101 314 64 q 414 219 414 138 q 384 287 414 263 q 282 342 354 311 q 148 418 186 383 q 110 503 110 453 q 188 667 110 611 q 396 722 265 722 q 513 713 468 722 q 596 685 557 703 l 565 615 q 492 641 528 632 q 386 650 456 650 q 253 619 303 650 q 204 525 204 588 q 222 477 204 497 q 266 443 239 457 q 350 406 293 429 q 472 333 436 369 q 508 243 508 297 q 432 54 508 117 q 210 -8 356 -8 m 458 832 l 371 832 l 271 1021 q 324 1001 304 1014 q 363 965 344 989 q 419 881 381 940 q 547 985 501 958 q 649 1021 593 1013 l 458 832 z "},"ß":{"ha":874,"x_min":-137,"x_max":813,"o":"m -122 -201 q -97 -203 -114 -203 q 13 -162 -39 -203 q 90 -25 65 -121 l 285 797 q 354 920 307 888 q 489 953 401 953 l 614 953 q 760 933 707 953 q 813 846 813 914 q 790 751 813 789 q 734 692 767 714 q 649 643 701 669 q 551 580 582 608 q 519 501 519 551 q 544 452 519 471 q 621 411 568 433 q 699 374 668 392 q 752 324 731 356 q 774 244 774 292 q 702 59 774 125 q 506 -7 631 -7 q 398 3 438 -7 q 321 31 358 13 l 347 101 q 511 64 419 64 q 635 113 586 64 q 685 232 685 163 q 654 301 685 278 q 564 350 624 325 q 494 384 519 369 q 451 424 469 399 q 433 486 433 449 q 456 579 433 542 q 510 640 478 617 q 594 690 542 663 q 692 756 660 726 q 724 835 724 785 q 694 874 724 864 q 594 883 664 883 l 486 883 q 415 863 439 883 q 378 792 390 843 l 185 -28 q 89 -213 156 -149 q -83 -278 22 -278 q -137 -274 -110 -278 l -122 -201 z "},"ú":{"ha":783,"x_min":57,"x_max":750,"o":"m 247 -7 q 99 24 142 -7 q 57 118 57 54 q 71 214 57 154 l 190 714 l 244 714 q 272 703 263 714 q 278 678 281 693 l 175 243 q 166 203 174 236 q 158 146 158 169 q 189 88 158 107 q 300 69 219 69 q 494 82 400 69 q 247 -7 446 -7 m 654 714 l 750 714 l 581 0 l 486 0 l 654 714 m 594 911 q 522 854 560 874 q 431 829 483 835 l 572 1013 l 681 1013 l 594 911 z "},"û":{"ha":783,"x_min":57,"x_max":750,"o":"m 247 -7 q 99 24 142 -7 q 57 118 57 54 q 71 214 57 154 l 190 714 l 244 714 q 272 703 263 714 q 278 678 281 693 l 175 243 q 166 203 174 236 q 158 146 158 169 q 189 88 158 107 q 300 69 219 69 q 494 82 400 69 q 247 -7 446 -7 m 654 714 l 750 714 l 581 0 l 486 0 l 654 714 m 683 831 q 631 850 650 838 q 594 886 611 863 q 538 971 576 910 q 405 866 450 893 q 306 831 360 839 l 496 1019 l 583 1019 l 683 831 z "},"ü":{"ha":783,"x_min":57,"x_max":750,"o":"m 247 -7 q 99 24 142 -7 q 57 118 57 54 q 71 214 57 154 l 190 714 l 244 714 q 272 703 263 714 q 278 678 281 693 l 175 243 q 166 203 174 236 q 158 146 158 169 q 189 88 158 107 q 300 69 219 69 q 494 82 400 69 q 247 -7 446 -7 m 654 714 l 750 714 l 581 0 l 486 0 l 654 714 m 410 886 q 369 903 383 886 q 356 946 356 919 q 369 988 356 971 q 410 1004 383 1004 q 450 988 436 1004 q 464 946 464 971 q 450 902 464 918 q 410 886 436 886 m 639 886 q 599 903 613 886 q 585 946 585 919 q 599 988 585 971 q 639 1004 613 1004 q 679 988 665 1004 q 693 946 693 971 q 679 902 693 918 q 639 886 665 886 z "},"ù":{"ha":783,"x_min":57,"x_max":750,"o":"m 247 -7 q 99 24 142 -7 q 57 118 57 54 q 71 214 57 154 l 190 714 l 244 714 q 272 703 263 714 q 278 678 281 693 l 175 243 q 166 203 174 236 q 158 146 158 169 q 189 88 158 107 q 300 69 219 69 q 494 82 400 69 q 247 -7 446 -7 m 654 714 l 750 714 l 581 0 l 486 0 l 654 714 m 440 1018 l 543 828 q 470 853 500 833 q 418 906 440 872 l 346 1018 l 440 1018 z "},"ý":{"ha":640,"x_min":-112,"x_max":701,"o":"m -87 -203 l -67 -204 q 74 -150 14 -204 q 190 3 135 -96 q 179 21 181 10 l 104 714 l 201 714 l 232 349 q 254 99 242 251 l 257 99 q 385 328 325 224 l 606 714 l 701 714 l 271 -17 q 163 -174 214 -118 q 56 -256 113 -231 q -79 -281 -1 -281 l -112 -279 l -87 -203 m 536 911 q 463 854 501 874 q 372 829 425 835 l 514 1013 l 622 1013 l 536 911 z "},"ÿ":{"ha":640,"x_min":-112,"x_max":701,"o":"m -87 -203 l -67 -204 q 74 -150 14 -204 q 190 3 135 -96 q 179 21 181 10 l 104 714 l 201 714 l 232 349 q 254 99 242 251 l 257 99 q 385 328 325 224 l 606 714 l 701 714 l 271 -17 q 163 -174 214 -118 q 56 -256 113 -231 q -79 -281 -1 -281 l -112 -279 l -87 -203 m 351 886 q 311 903 325 886 q 297 946 297 919 q 311 988 297 971 q 351 1004 325 1004 q 392 988 378 1004 q 406 946 406 971 q 392 902 406 918 q 351 886 378 886 m 581 886 q 540 903 554 886 q 526 946 526 919 q 540 988 526 971 q 581 1004 554 1004 q 621 988 607 1004 q 635 946 635 971 q 621 902 635 918 q 581 886 607 886 z "},"ž":{"ha":625,"x_min":-37,"x_max":654,"o":"m -24 61 l 353 463 l 525 644 l 133 644 l 150 714 l 654 714 l 640 651 l 231 211 l 96 69 l 515 69 l 499 0 l -37 0 l -24 61 m 454 832 l 367 832 l 267 1021 q 320 1001 300 1014 q 358 965 340 989 q 415 881 376 940 q 543 985 497 958 q 644 1021 589 1013 l 454 832 z "},"ª":{"ha":610,"x_min":118,"x_max":603,"o":"m 267 392 q 153 417 188 392 q 118 506 118 443 q 142 649 118 557 q 194 813 172 764 q 263 885 215 861 q 408 910 311 910 q 513 901 467 910 q 603 875 558 893 l 489 397 l 424 397 l 528 839 q 475 853 501 849 q 394 857 449 857 q 294 839 326 857 q 245 779 263 821 q 204 639 228 738 q 183 514 183 546 q 208 459 183 474 q 296 444 232 444 q 429 460 369 444 q 372 414 421 436 q 267 392 322 392 z "},"º":{"ha":601,"x_min":138,"x_max":601,"o":"m 429 908 q 563 881 525 908 q 601 794 601 854 q 578 653 601 750 q 529 491 553 542 q 456 416 506 440 q 307 392 407 392 q 175 419 213 392 q 138 506 138 446 q 161 649 138 550 q 209 810 185 758 q 283 885 233 861 q 429 908 332 908 m 417 856 q 317 840 350 856 q 267 785 285 825 q 228 653 250 746 l 219 613 q 200 506 200 531 q 226 456 200 468 q 319 443 251 443 q 422 458 390 443 q 471 513 454 474 q 510 651 488 553 q 526 733 519 696 q 533 792 533 769 q 509 843 533 831 q 417 856 485 856 z "},"½":{"ha":1094,"x_min":76,"x_max":1093,"o":"m 915 940 l 974 940 l 136 -6 l 76 -6 l 915 940 m 288 875 l 142 821 l 156 875 l 311 932 l 344 932 q 358 911 365 932 l 218 319 l 156 319 l 288 875 m 613 -1 q 626 53 617 29 q 676 151 643 110 q 749 218 710 192 q 846 276 788 244 q 934 331 903 310 q 992 385 965 353 q 1028 463 1018 418 q 1033 503 1033 483 q 1009 553 1033 538 q 931 568 985 568 q 850 558 886 568 q 778 532 814 547 l 782 583 q 856 608 822 599 q 939 617 889 617 q 1055 588 1017 617 q 1093 506 1093 558 q 1088 460 1093 482 q 1042 363 1074 403 q 974 297 1011 324 q 876 238 936 271 q 749 152 794 192 q 688 46 704 113 l 985 46 l 974 -1 l 613 -1 z "},"¼":{"ha":971,"x_min":76,"x_max":974,"o":"m 915 940 l 974 940 l 136 -6 l 76 -6 l 915 940 m 288 875 l 142 821 l 156 875 l 311 932 l 344 932 q 358 911 365 932 l 218 319 l 156 319 l 288 875 m 758 144 l 469 144 l 476 175 q 489 197 482 189 l 838 613 l 908 613 q 921 606 917 613 q 922 592 925 600 l 828 190 l 893 190 l 881 144 l 817 144 l 782 -1 l 725 -1 l 758 144 m 769 190 l 858 563 l 542 190 l 769 190 z "},"¾":{"ha":1053,"x_min":33,"x_max":1056,"o":"m 997 940 l 1056 940 l 217 -6 l 158 -6 l 997 940 m 208 315 q 125 322 160 315 q 69 336 90 328 q 33 351 47 344 l 56 397 q 118 372 83 382 q 210 363 153 363 q 292 373 263 363 q 339 408 322 383 q 368 483 356 433 q 378 549 378 529 q 356 598 378 585 q 279 611 333 611 l 179 611 l 190 658 l 304 658 q 390 686 365 658 q 426 774 414 714 q 435 833 435 811 q 414 875 435 864 q 336 886 393 886 q 258 879 289 886 q 185 860 228 872 l 189 908 q 216 918 193 910 q 274 932 239 926 q 349 938 308 938 q 465 911 431 938 q 500 836 500 885 q 493 788 500 815 q 448 678 475 710 q 372 633 421 647 q 424 606 408 626 q 439 551 439 586 q 428 471 439 522 q 394 378 415 411 q 330 331 374 346 q 208 315 286 315 m 839 144 l 550 144 l 557 175 q 571 197 563 189 l 918 613 l 989 613 q 1001 606 997 613 q 1003 592 1006 600 l 908 190 l 974 190 l 963 144 l 897 144 l 863 -1 l 806 -1 l 839 144 m 851 190 l 938 563 l 622 190 l 851 190 z "},"¹":{"ha":265,"x_min":161,"x_max":383,"o":"m 306 956 l 161 901 l 174 956 l 329 1013 l 363 1013 q 376 992 383 1013 l 236 400 l 174 400 l 306 956 z "},"²":{"ha":440,"x_min":47,"x_max":528,"o":"m 47 400 q 61 453 51 432 q 111 552 78 511 q 183 619 144 593 q 282 678 222 646 q 370 733 339 711 q 428 787 401 754 q 464 864 454 819 q 469 904 469 894 q 445 954 469 939 q 367 969 421 969 q 286 960 321 969 q 213 933 251 950 l 217 985 q 290 1009 257 1000 q 374 1018 324 1018 q 490 988 451 1018 q 528 906 528 958 q 522 861 528 882 q 477 764 508 804 q 408 697 446 724 q 311 638 371 671 q 185 552 231 592 q 122 447 140 513 l 419 447 l 408 400 l 47 400 z "},"³":{"ha":438,"x_min":53,"x_max":519,"o":"m 228 396 q 123 406 158 396 q 53 433 88 417 l 75 478 q 137 453 101 463 q 229 444 172 444 q 312 455 282 444 q 358 490 342 465 q 386 565 375 515 q 396 631 396 603 q 374 678 396 665 q 299 692 353 692 l 197 692 l 208 739 l 324 739 q 408 767 383 739 q 446 854 432 796 q 456 915 456 899 q 434 956 456 944 q 357 967 413 967 q 278 960 308 967 q 204 940 247 953 l 208 990 q 277 1010 243 1003 q 368 1018 311 1018 q 485 992 450 1018 q 519 917 519 965 q 513 868 519 896 q 469 762 496 794 q 390 714 442 729 q 442 688 426 707 q 458 632 458 668 q 447 551 458 603 q 414 459 435 492 q 349 411 393 426 q 228 396 306 396 z "},"·":{"ha":428,"x_min":171,"x_max":304,"o":"m 238 363 q 189 381 207 363 q 171 432 171 400 q 188 484 171 465 q 238 503 206 503 q 286 484 268 503 q 304 432 304 465 q 286 381 304 399 q 238 363 268 363 z "},"•":{"ha":694,"x_min":188,"x_max":556,"o":"m 375 289 q 279 315 322 289 q 212 383 236 340 q 188 475 188 425 q 241 609 188 554 q 375 664 294 664 q 465 639 424 664 q 531 570 507 614 q 556 475 556 526 q 531 382 556 425 q 465 314 507 339 q 375 289 424 289 z "},"…":{"ha":1389,"x_min":85,"x_max":1093,"o":"m 147 -10 q 101 8 118 -10 q 85 58 85 26 q 101 110 85 92 q 147 129 118 129 q 192 110 175 129 q 210 58 210 92 q 193 8 210 26 q 147 -10 176 -10 m 593 -10 q 547 8 564 -10 q 529 58 529 26 q 547 110 529 92 q 593 129 564 129 q 638 110 621 129 q 656 58 656 92 q 639 8 656 26 q 593 -10 622 -10 m 1031 -10 q 984 8 1001 -10 q 967 58 967 26 q 984 110 967 92 q 1031 129 1001 129 q 1076 110 1058 129 q 1093 58 1093 92 q 1076 8 1093 26 q 1031 -10 1060 -10 z "},"¡":{"ha":376,"x_min":-1,"x_max":325,"o":"m 258 722 q 307 703 289 722 q 325 651 325 685 q 307 600 325 619 q 258 581 289 581 q 210 600 228 581 q 192 651 192 619 q 209 703 192 685 q 258 722 226 722 m 40 -225 q 10 -216 22 -225 q -1 -193 -1 -207 l 1 -182 l 194 515 l 257 515 l 122 -182 q 104 -212 119 -199 q 68 -225 89 -225 l 40 -225 z "},"¿":{"ha":603,"x_min":-36,"x_max":468,"o":"m 404 722 q 451 703 433 722 q 468 651 468 685 q 451 599 468 618 q 404 581 433 581 q 354 599 372 581 q 336 651 336 618 q 354 703 336 685 q 404 722 372 722 m 167 -219 q 10 -174 56 -219 q -36 -57 -36 -128 q -26 19 -36 -22 q 13 114 -12 75 q 67 178 39 153 q 143 235 96 203 q 230 301 196 271 q 293 384 264 332 q 338 514 322 436 l 410 514 q 367 361 397 421 q 300 268 336 301 q 208 197 264 235 q 114 122 147 157 q 65 22 81 86 q 56 -49 56 -22 q 85 -119 56 -94 q 186 -144 114 -144 q 297 -133 253 -144 q 396 -100 342 -121 l 399 -179 q 294 -208 343 -197 q 167 -219 246 -219 z "},"—":{"ha":1389,"x_min":11,"x_max":1417,"o":"m 22 451 q 33 468 25 461 q 49 475 40 475 l 1417 476 l 1404 426 q 1394 408 1401 415 q 1378 401 1386 401 l 11 400 l 22 451 z "},"–":{"ha":694,"x_min":11,"x_max":722,"o":"m 22 451 q 33 468 25 461 q 49 475 40 475 l 722 476 l 710 426 q 699 408 707 415 q 683 401 692 401 l 11 400 l 22 451 z "},"­":{"ha":460,"x_min":81,"x_max":417,"o":"m 92 451 q 101 468 93 461 q 118 475 110 475 l 417 476 l 404 426 q 394 408 401 415 q 378 401 386 401 l 81 400 l 92 451 z "},"«":{"ha":650,"x_min":65,"x_max":633,"o":"m 304 128 l 217 128 l 65 361 l 317 585 l 417 585 l 154 356 l 304 128 m 521 125 l 433 125 l 282 358 l 533 582 l 633 582 l 371 353 l 521 125 z "},"»":{"ha":649,"x_min":15,"x_max":583,"o":"m 128 585 l 215 585 l 367 351 l 115 128 l 15 128 l 278 357 l 128 585 m 344 582 l 432 582 l 583 349 l 332 125 l 232 125 l 494 354 l 344 582 z "},"‹":{"ha":432,"x_min":65,"x_max":417,"o":"m 304 129 l 217 129 l 65 363 l 317 586 l 417 586 l 154 357 l 304 129 z "},"›":{"ha":432,"x_min":15,"x_max":367,"o":"m 128 585 l 215 585 l 367 351 l 115 128 l 15 128 l 278 357 l 128 585 z "},"„":{"ha":550,"x_min":-33,"x_max":393,"o":"m 36 -185 q 11 -201 28 -201 l -33 -201 l 122 114 l 217 114 l 36 -185 m 214 -185 q 188 -201 206 -201 l 144 -201 l 299 114 l 393 114 l 214 -185 z "},"“":{"ha":550,"x_min":176,"x_max":604,"o":"m 357 972 q 382 989 367 989 l 425 989 l 271 674 l 176 674 l 357 972 m 536 972 q 561 989 546 989 l 604 989 l 450 674 l 356 674 l 536 972 z "},"”":{"ha":549,"x_min":165,"x_max":592,"o":"m 235 690 q 224 678 231 682 q 210 674 217 674 l 165 674 l 319 989 l 414 989 l 235 690 m 413 690 q 401 678 408 682 q 388 674 394 674 l 343 674 l 497 989 l 592 989 l 413 690 z "},"‘":{"ha":333,"x_min":157,"x_max":406,"o":"m 338 972 q 363 989 347 989 l 406 989 l 251 674 l 157 674 l 338 972 z "},"’":{"ha":333,"x_min":146,"x_max":394,"o":"m 215 690 q 204 678 211 682 q 190 674 197 674 l 146 674 l 300 989 l 394 989 l 215 690 z "},"‚":{"ha":333,"x_min":-57,"x_max":193,"o":"m 13 -185 q -11 -201 4 -201 l -57 -201 l 99 114 l 193 114 l 13 -185 z "}," ":{"ha":353,"x_min":0,"x_max":0,"o":""},"¢":{"ha":763,"x_min":133,"x_max":717,"o":"m 343 99 q 180 140 226 103 q 133 261 133 178 q 165 467 133 328 q 238 690 201 617 q 337 793 275 763 q 517 828 399 824 l 543 942 l 589 942 l 563 828 q 648 820 606 826 q 717 804 690 814 l 689 728 q 617 746 660 739 q 536 753 574 753 q 393 733 439 753 q 320 655 347 713 q 261 463 293 597 q 235 346 246 399 q 225 264 225 293 q 241 208 225 228 q 293 181 257 189 q 396 174 329 174 q 563 192 485 174 l 557 118 q 390 99 482 99 l 364 -14 l 317 -14 l 343 99 z "},"¤":{"ha":763,"x_min":111,"x_max":669,"o":"m 111 106 l 194 190 q 146 338 146 257 q 189 482 146 417 l 111 565 l 171 626 l 249 544 q 386 593 315 593 q 528 542 461 593 l 610 626 l 669 567 l 585 478 q 626 338 626 418 q 583 196 626 256 l 669 106 l 610 46 l 525 133 q 386 83 460 83 q 253 131 315 83 l 171 46 l 111 106 m 390 154 q 508 206 463 154 q 554 338 554 257 q 508 471 554 419 q 390 522 463 522 q 270 470 317 522 q 224 338 224 418 q 271 206 224 257 q 390 154 318 154 z "},"€":{"ha":763,"x_min":38,"x_max":824,"o":"m 415 67 q 527 76 485 67 q 625 106 569 85 l 615 29 q 388 -8 522 -8 q 205 12 272 -8 q 108 76 138 32 q 79 192 79 119 q 106 379 79 263 l 38 379 l 49 426 l 117 426 l 126 468 q 133 496 131 483 q 139 518 136 508 l 71 518 l 82 567 l 151 567 q 242 799 193 722 q 374 906 292 875 q 608 936 457 936 q 731 926 683 936 q 824 899 779 915 l 796 824 q 600 861 711 861 q 426 839 486 861 q 327 756 365 817 q 256 567 289 694 l 674 567 l 663 518 l 243 518 l 232 472 l 222 426 l 642 426 l 629 379 l 210 379 q 185 200 185 254 q 206 117 185 146 q 276 78 228 89 q 415 67 325 67 z "},"ƒ":{"ha":763,"x_min":-132,"x_max":928,"o":"m 783 939 q 708 917 739 939 q 657 851 678 896 l 581 688 l 742 688 l 714 621 l 553 621 l 253 -37 q 192 -137 224 -103 q 119 -185 161 -171 q 10 -199 78 -199 l -132 -199 l -100 -126 l 21 -126 q 99 -103 67 -126 q 154 -32 132 -81 l 454 621 l 331 621 l 361 686 l 483 688 l 556 850 q 617 949 586 915 q 691 997 649 983 q 801 1011 733 1011 l 928 1011 l 896 939 l 783 939 z "},"£":{"ha":763,"x_min":-3,"x_max":810,"o":"m 18 88 q 203 356 157 199 q 225 460 217 403 l 115 460 l 126 511 l 226 511 q 228 585 228 538 q 230 667 228 635 q 240 733 232 699 q 335 888 263 840 q 563 935 407 935 q 810 897 697 935 l 779 815 q 535 854 663 854 q 392 824 436 854 q 332 721 349 794 q 321 582 321 672 q 319 513 321 535 l 594 513 l 582 460 l 311 460 q 290 351 303 388 q 227 208 271 276 q 115 83 183 139 l 596 83 l 576 0 l -3 0 l 18 88 z "},"¥":{"ha":763,"x_min":28,"x_max":840,"o":"m 472 429 l 719 429 l 707 372 l 426 372 l 407 289 l 690 289 l 678 232 l 393 232 l 339 0 l 236 0 l 290 232 l 28 232 l 40 289 l 303 289 l 322 372 l 57 372 l 69 429 l 307 429 l 176 928 l 279 928 l 328 719 l 339 676 q 362 578 349 633 q 390 453 375 522 l 394 453 q 586 719 458 544 l 739 928 l 840 928 l 472 429 z "},"×":{"ha":763,"x_min":208,"x_max":635,"o":"m 208 311 l 372 483 l 208 653 l 260 707 l 422 536 l 583 706 l 635 651 l 474 483 l 635 314 l 583 258 l 422 429 l 260 258 l 208 311 z "},"÷":{"ha":763,"x_min":143,"x_max":674,"o":"m 408 631 q 363 649 379 631 q 346 700 346 667 q 363 751 346 732 q 408 769 379 769 q 453 751 436 769 q 471 700 471 732 q 454 649 471 667 q 408 631 438 631 m 143 519 l 674 519 l 674 443 l 143 443 l 143 519 m 408 197 q 363 216 379 197 q 346 267 346 235 q 363 319 346 300 q 408 338 379 338 q 453 319 436 338 q 471 267 471 300 q 453 216 471 235 q 408 197 436 197 z "},"±":{"ha":763,"x_min":164,"x_max":669,"o":"m 381 513 l 164 513 l 164 592 l 381 592 l 381 814 l 453 814 l 453 592 l 669 592 l 669 513 l 453 513 l 453 296 l 381 296 l 381 513 m 164 247 l 669 247 l 669 169 l 164 169 l 164 247 z "},"¬":{"ha":763,"x_min":136,"x_max":636,"o":"m 635 326 l 550 326 l 550 546 l 136 546 l 136 622 l 636 622 l 635 326 z "},"µ":{"ha":789,"x_min":-42,"x_max":756,"o":"m 185 243 q 174 201 182 235 q 165 144 165 167 q 193 89 165 107 q 292 71 221 71 q 390 75 332 71 q 490 86 447 79 q 403 17 472 40 q 249 -7 333 -7 q 172 4 210 -7 q 119 35 135 15 l 44 -272 l -42 -272 l 203 713 l 257 713 q 287 701 278 713 q 292 672 296 689 l 185 243 m 756 713 l 578 0 l 482 0 l 658 713 l 756 713 z "},"‰":{"ha":1818,"x_min":79,"x_max":1783,"o":"m 250 317 q 117 345 156 317 q 79 442 79 374 q 111 632 79 500 q 170 822 140 760 q 251 911 200 885 q 396 938 301 938 q 522 907 485 938 q 560 807 560 876 q 532 632 560 753 q 474 435 501 499 q 396 344 446 372 q 250 317 346 317 m 1032 938 l 1092 938 l 260 -4 l 199 -4 l 1032 938 m 258 361 q 359 382 324 361 q 417 458 394 403 q 468 632 440 513 q 499 813 499 763 q 473 876 499 860 q 383 892 447 892 q 281 872 317 892 q 224 800 246 853 q 174 632 201 747 q 147 507 154 549 q 139 438 139 465 q 165 376 139 392 q 258 361 190 361 m 906 -4 q 773 25 811 -4 q 735 122 735 54 q 765 311 735 178 q 824 501 794 439 q 906 590 854 564 q 1051 617 957 617 q 1179 586 1142 617 q 1217 485 1217 556 q 1189 311 1217 432 q 1129 115 1158 179 q 1050 24 1100 51 q 906 -4 1000 -4 m 1472 -4 q 1340 25 1378 -4 q 1303 121 1303 54 q 1333 311 1303 175 q 1392 501 1363 438 q 1472 590 1421 564 q 1618 617 1524 617 q 1746 586 1708 617 q 1783 485 1783 556 q 1756 311 1783 432 q 1697 115 1725 178 q 1618 24 1668 51 q 1472 -4 1568 -4 m 915 40 q 1015 61 981 40 q 1073 137 1050 82 q 1124 311 1096 192 q 1148 426 1140 386 q 1156 493 1156 465 q 1130 555 1156 539 q 1040 571 1104 571 q 938 551 974 571 q 880 479 903 532 q 829 311 857 426 q 802 188 810 229 q 794 119 794 147 q 821 56 794 72 q 915 40 847 40 m 1482 40 q 1582 61 1547 40 q 1640 137 1617 82 q 1690 311 1663 192 q 1715 426 1707 386 q 1722 493 1722 465 q 1697 555 1722 539 q 1607 571 1671 571 q 1504 551 1539 571 q 1447 480 1469 532 q 1396 311 1424 428 q 1369 188 1376 229 q 1361 119 1361 147 q 1388 56 1361 72 q 1482 40 1414 40 z "},"¶":{"ha":792,"x_min":146,"x_max":836,"o":"m 342 353 q 146 515 146 353 q 155 593 146 556 q 165 638 164 631 q 207 769 182 711 q 298 878 232 828 q 479 928 364 928 l 614 928 l 478 353 l 342 353 m 660 928 l 836 928 l 817 849 l 717 849 l 449 -279 l 372 -279 l 660 928 z "},"§":{"ha":825,"x_min":33,"x_max":781,"o":"m 743 822 q 656 851 710 838 q 540 864 603 864 q 409 838 460 864 q 338 774 358 811 q 317 700 317 736 q 328 659 317 675 q 376 625 340 643 q 489 574 411 607 q 594 524 556 546 q 661 465 633 503 q 689 372 689 428 q 658 247 689 311 q 581 143 628 182 q 614 56 614 113 q 526 -151 614 -89 q 279 -212 438 -212 q 139 -200 192 -212 q 33 -167 86 -187 l 65 -93 q 289 -139 168 -139 q 458 -99 400 -139 q 517 32 517 -60 q 504 81 517 61 q 453 122 492 100 q 335 172 414 143 q 190 250 236 210 q 143 353 143 290 q 183 483 143 418 q 285 578 224 547 q 221 686 221 617 q 317 870 221 803 q 565 938 413 938 q 781 893 692 938 l 743 822 m 525 182 q 578 253 560 207 q 596 349 596 300 q 575 419 596 392 q 519 466 554 447 q 418 511 485 485 l 344 542 q 265 472 297 521 q 233 378 233 424 q 267 308 233 338 q 382 243 300 278 q 525 182 479 204 z "},"©":{"ha":1129,"x_min":181,"x_max":1004,"o":"m 597 936 q 872 899 789 936 q 980 769 956 861 q 1004 469 1004 678 q 980 162 1004 256 q 872 30 956 68 q 597 -8 789 -8 q 310 30 394 -8 q 203 160 225 68 q 181 469 181 251 q 207 771 181 678 q 318 900 233 864 q 597 936 403 936 m 601 893 q 353 866 426 893 q 254 755 279 839 q 229 469 229 671 q 251 174 229 258 q 346 60 272 89 q 601 32 419 32 q 839 58 768 32 q 935 169 910 85 q 960 453 960 254 q 936 749 960 663 q 842 865 913 836 q 601 893 771 893 m 769 215 q 624 194 710 194 q 478 220 524 194 q 421 299 433 246 q 408 467 408 353 q 424 631 408 576 q 484 708 439 685 q 624 732 529 732 q 769 710 710 732 l 763 658 q 626 682 713 682 q 522 666 554 682 q 480 607 490 650 q 469 468 469 564 q 478 323 469 365 q 519 264 488 281 q 628 247 551 247 q 698 251 674 247 q 740 261 722 256 q 763 268 757 267 l 769 215 z "},"®":{"ha":615,"x_min":165,"x_max":596,"o":"m 383 450 q 233 469 278 450 q 177 536 189 489 q 165 694 165 583 q 179 849 165 801 q 238 914 193 896 q 383 932 282 932 q 526 913 483 932 q 583 848 569 894 q 596 694 596 801 q 583 537 596 585 q 526 469 569 489 q 383 450 483 450 m 385 472 q 512 486 475 472 q 560 544 549 500 q 572 694 572 588 q 560 840 572 797 q 510 896 547 882 q 385 910 474 910 q 255 897 293 910 q 204 840 217 883 q 192 694 192 797 q 203 544 192 586 q 251 487 214 501 q 385 472 289 472 m 303 832 l 399 832 q 451 823 436 832 q 468 798 465 814 q 471 742 471 782 q 461 694 471 708 q 413 678 451 679 l 479 557 l 454 557 q 446 563 450 557 l 379 678 q 338 703 342 682 q 393 699 388 699 q 427 703 417 699 q 440 718 438 708 q 442 753 442 728 q 440 790 442 779 q 428 805 438 800 q 393 810 418 810 l 331 810 l 331 557 l 303 557 l 303 832 z "},"™":{"ha":1092,"x_min":221,"x_max":1092,"o":"m 361 883 l 221 883 l 221 928 l 553 928 l 553 883 l 415 883 l 415 421 l 361 421 l 361 883 m 640 928 l 732 928 l 825 643 l 868 500 l 871 500 l 890 564 l 913 639 l 1000 913 q 1021 928 1004 928 l 1092 928 l 1092 421 l 1040 421 l 1040 881 l 990 733 l 890 421 l 858 421 q 838 436 840 421 l 742 729 l 693 881 l 692 421 l 640 421 l 640 928 z "},"°":{"ha":625,"x_min":190,"x_max":599,"o":"m 447 928 q 566 910 533 928 q 599 843 599 892 q 578 715 599 806 q 536 571 554 611 q 478 514 518 531 q 346 497 438 497 q 224 517 258 497 q 190 586 190 536 q 197 642 190 607 q 213 715 203 676 q 256 858 236 818 q 315 913 275 897 q 447 928 356 928 m 433 871 q 346 861 372 871 q 307 822 319 851 q 276 715 294 793 q 254 597 254 622 q 264 567 254 576 q 294 556 274 558 q 360 554 314 554 q 446 563 422 554 q 482 600 469 571 q 515 715 494 629 l 524 756 q 536 825 536 811 q 515 863 536 854 q 433 871 494 871 z "},"¦":{"ha":515,"x_min":217,"x_max":290,"o":"m 217 933 l 290 933 l 290 453 l 217 453 l 217 933 m 217 213 l 290 213 l 290 -282 l 217 -282 l 217 213 z "},"†":{"ha":763,"x_min":232,"x_max":689,"o":"m 471 738 q 461 747 464 738 q 460 771 458 756 l 483 928 l 550 928 l 496 771 q 483 747 490 756 q 471 738 476 738 m 250 732 l 393 715 q 413 709 406 714 q 421 699 421 704 q 411 685 421 692 q 385 676 401 678 l 232 661 l 250 732 m 528 676 q 500 693 500 678 q 510 707 500 700 q 536 715 519 714 l 689 732 l 672 661 l 528 676 m 335 161 q 326 166 329 161 q 322 181 322 171 q 372 463 322 194 l 425 621 q 437 645 429 636 q 451 654 444 654 q 460 645 457 654 q 463 621 464 636 l 440 463 l 360 194 q 335 161 350 161 z "},"‡":{"ha":764,"x_min":125,"x_max":692,"o":"m 474 738 q 464 746 467 738 q 463 771 461 754 l 486 928 l 553 928 l 499 771 q 486 747 493 756 q 474 738 479 738 m 253 732 l 396 715 q 416 709 408 714 q 424 699 424 704 q 414 685 424 692 q 388 676 404 678 l 235 661 l 253 732 m 531 676 q 503 693 503 678 q 513 707 503 700 q 539 715 522 714 l 692 732 l 675 661 l 531 676 m 363 267 q 351 300 347 267 l 374 463 l 428 621 q 440 645 432 636 q 454 654 447 654 q 463 645 460 654 q 465 621 467 636 l 443 463 l 388 300 q 375 276 382 285 q 363 267 368 267 m 142 268 l 286 253 q 306 247 299 251 q 314 236 314 242 q 304 222 314 228 q 278 214 294 215 l 125 197 l 142 268 m 419 214 q 400 219 407 215 q 393 229 393 224 q 403 244 393 238 q 429 253 413 251 l 582 268 l 565 197 l 419 214 m 317 158 q 330 183 322 174 q 344 192 338 192 q 353 183 350 192 q 354 158 356 174 l 332 0 l 265 0 l 317 158 z "},"´":{"ha":672,"x_min":336,"x_max":586,"o":"m 500 907 q 427 850 465 869 q 336 825 389 831 l 478 1008 l 586 1008 l 500 907 z "},"ˇ":{"ha":672,"x_min":289,"x_max":667,"o":"m 476 828 l 389 828 l 289 1017 q 342 997 322 1010 q 381 960 363 985 q 438 876 399 936 q 565 981 519 954 q 667 1017 611 1008 l 476 828 z "},"¸":{"ha":672,"x_min":78,"x_max":347,"o":"m 249 -64 q 347 -136 347 -62 q 193 -289 347 -289 q 136 -287 171 -289 q 78 -281 101 -285 l 90 -228 q 204 -237 128 -237 q 293 -146 293 -237 q 281 -123 293 -131 q 233 -115 268 -115 l 181 -115 l 211 17 l 268 17 l 249 -64 z "},"ˆ":{"ha":672,"x_min":244,"x_max":622,"o":"m 622 826 q 569 846 589 833 q 533 882 550 858 q 476 967 515 906 q 344 862 389 889 q 244 826 299 835 l 435 1015 l 522 1015 l 622 826 z "},"¨":{"ha":672,"x_min":292,"x_max":629,"o":"m 346 882 q 306 899 319 882 q 292 942 292 915 q 306 983 292 967 q 346 1000 319 1000 q 386 983 372 1000 q 400 942 400 967 q 386 898 400 914 q 346 882 372 882 m 575 882 q 535 899 549 882 q 521 942 521 915 q 535 983 521 967 q 575 1000 549 1000 q 615 983 601 1000 q 629 942 629 967 q 615 898 629 914 q 575 882 601 882 z "},"¯":{"ha":672,"x_min":244,"x_max":664,"o":"m 664 940 l 649 876 l 244 876 l 260 940 l 664 940 z "},"˚":{"ha":672,"x_min":344,"x_max":589,"o":"m 494 1074 q 568 1058 547 1074 q 589 1014 589 1043 q 582 963 589 994 q 560 893 571 915 q 523 859 550 871 q 440 847 496 847 q 365 862 386 847 q 344 906 344 876 q 353 963 344 918 q 374 1029 363 1007 q 413 1063 386 1051 q 494 1074 440 1074 m 486 1035 q 441 1028 456 1035 q 420 1009 426 1022 q 407 963 414 996 q 396 907 396 921 q 406 890 396 893 q 450 886 417 886 q 494 890 481 886 q 514 909 507 894 q 531 963 521 924 q 539 1010 539 1004 q 528 1030 539 1025 q 486 1035 517 1035 z "},"˜":{"ha":672,"x_min":256,"x_max":669,"o":"m 256 876 q 297 965 258 939 q 385 990 336 990 q 479 971 421 990 q 510 963 486 969 q 554 956 535 956 q 603 963 585 956 q 644 986 622 971 l 669 1001 q 631 914 668 942 q 547 886 594 886 q 498 892 524 886 q 450 904 472 897 q 376 919 401 919 q 329 912 350 919 q 281 889 308 904 l 256 876 z "}}}
